<?xml version="1.0" encoding="utf-8"?>
<!-- Generator: Adobe Illustrator 15.0.0, SVG Export Plug-In . SVG Version: 6.00 Build 0)  -->
<!DOCTYPE svg PUBLIC "-//W3C//DTD SVG 1.1//EN" "http://www.w3.org/Graphics/SVG/1.1/DTD/svg11.dtd">
<svg version="1.1" id="notebook" xmlns="http://www.w3.org/2000/svg" xmlns:xlink="http://www.w3.org/1999/xlink" x="0px" y="0px"
	 width="158.5px" height="113.118px" viewBox="0 0 158.5 113.118" enable-background="new 0 0 158.5 113.118" xml:space="preserve">
<g>
	<path fill="#6C7988" d="M69.381,27.455H25.625v-5.563h43.756V27.455z M26.366,26.712h42.272v-4.079H26.366V26.712z"/>
</g>
<g>
	<path fill="#6C7988" d="M69.381,37.096H25.625v-5.562h43.756V37.096z M26.366,36.354h42.272v-4.079H26.366V36.354z"/>
</g>
<g>
	<path fill="#6C7988" d="M69.381,46.366H25.625v-5.563h43.756V46.366z M26.366,45.625h42.272v-4.079H26.366V45.625z"/>
</g>
<g>
	<rect x="26.366" y="101.988" fill="#6C7988" width="21.137" height="0.74"/>
</g>
<g>
	<rect x="26.366" y="99.764" fill="#6C7988" width="21.137" height="0.74"/>
</g>
<g>
	<rect x="26.366" y="97.538" fill="#6C7988" width="21.137" height="0.741"/>
</g>
<g>
	<g>
		<rect x="6.713" y="24.488" fill="#6C7988" width="1.483" height="7.046"/>
	</g>
	<g>
		<rect x="6.713" y="43.398" fill="#6C7988" width="1.483" height="6.675"/>
	</g>
	<g>
		<rect x="6.713" y="89.75" fill="#6C7988" width="1.483" height="7.047"/>
	</g>
	<g>
		<rect x="6.713" y="80.48" fill="#6C7988" width="1.483" height="6.674"/>
	</g>
	<g>
		<rect x="6.713" y="34.129" fill="#6C7988" width="1.483" height="6.674"/>
	</g>
	<g>
		<rect x="6.713" y="15.218" fill="#6C7988" width="1.483" height="6.675"/>
	</g>
	<g>
		<rect x="6.713" y="71.209" fill="#6C7988" width="1.483" height="6.678"/>
	</g>
	<g>
		<rect x="6.713" y="52.669" fill="#6C7988" width="1.483" height="6.677"/>
	</g>
	<g>
		<rect x="6.713" y="61.939" fill="#6C7988" width="1.483" height="6.677"/>
	</g>
</g>
<g>
	<path fill="#6C7988" d="M5.416,24.858h3.53c0.554,0.783,1.464,1.298,2.495,1.298c1.687,0,3.059-1.373,3.059-3.06
		c0.001-1.687-1.372-3.059-3.059-3.059c-1.11,0-2.082,0.596-2.618,1.483H5.416c-0.92,0-1.669,0.749-1.669,1.668
		S4.496,24.858,5.416,24.858z M11.44,20.78c1.277,0,2.317,1.04,2.317,2.317c0,1.277-1.04,2.317-2.317,2.317
		c-0.573,0-1.096-0.21-1.5-0.556h1.407c0.92,0,1.669-0.749,1.669-1.669s-0.749-1.668-1.669-1.668H9.752
		C10.175,21.067,10.772,20.78,11.44,20.78z M5.416,22.263h5.933c0.511,0,0.927,0.417,0.927,0.927c0,0.51-0.416,0.927-0.927,0.927
		H5.416c-0.511,0-0.928-0.416-0.928-0.927C4.487,22.679,4.904,22.263,5.416,22.263z"/>
	<path fill="#6C7988" d="M5.416,34.5h3.53c0.554,0.783,1.464,1.298,2.495,1.298c1.687,0,3.059-1.372,3.059-3.059
		c0.001-1.688-1.372-3.06-3.059-3.06c-1.11,0-2.082,0.596-2.618,1.483H5.416c-0.92,0-1.669,0.748-1.669,1.669
		C3.747,33.75,4.496,34.5,5.416,34.5z M11.44,30.42c1.277,0,2.317,1.04,2.317,2.318c0,1.277-1.04,2.317-2.317,2.317
		c-0.573,0-1.096-0.211-1.5-0.557h1.407c0.92,0,1.669-0.749,1.669-1.668c0-0.921-0.749-1.669-1.669-1.669H9.752
		C10.175,30.708,10.772,30.42,11.44,30.42z M5.416,31.904h5.933c0.511,0,0.927,0.416,0.927,0.928c0,0.511-0.416,0.927-0.927,0.927
		H5.416c-0.511,0-0.928-0.416-0.928-0.927C4.487,32.319,4.904,31.904,5.416,31.904z"/>
	<path fill="#6C7988" d="M5.416,43.77h3.53c0.554,0.783,1.464,1.298,2.495,1.298c1.687,0,3.059-1.372,3.059-3.06
		c0.001-1.687-1.372-3.06-3.059-3.06c-1.11,0-2.082,0.596-2.618,1.484H5.416c-0.92,0-1.669,0.749-1.669,1.668
		C3.747,43.021,4.496,43.77,5.416,43.77z M11.44,39.69c1.277,0,2.317,1.04,2.317,2.317c0,1.278-1.04,2.318-2.317,2.318
		c-0.573,0-1.096-0.211-1.5-0.557h1.407c0.92,0,1.669-0.749,1.669-1.669c0-0.919-0.749-1.668-1.669-1.668H9.752
		C10.175,39.979,10.772,39.69,11.44,39.69z M5.416,41.174h5.933c0.511,0,0.927,0.416,0.927,0.927c0,0.512-0.416,0.927-0.927,0.927
		H5.416c-0.511,0-0.928-0.415-0.928-0.927C4.487,41.59,4.904,41.174,5.416,41.174z"/>
	<path fill="#6C7988" d="M5.416,53.041h3.53c0.554,0.783,1.464,1.298,2.495,1.298c1.687,0,3.059-1.373,3.059-3.06
		c0.001-1.688-1.372-3.06-3.059-3.06c-1.11,0-2.082,0.596-2.618,1.484H5.416c-0.92,0-1.669,0.749-1.669,1.668
		C3.747,52.292,4.496,53.041,5.416,53.041z M11.44,48.961c1.277,0,2.317,1.039,2.317,2.317c0,1.277-1.04,2.316-2.317,2.316
		c-0.573,0-1.096-0.209-1.5-0.556h1.407c0.92,0,1.669-0.749,1.669-1.669c0-0.919-0.749-1.668-1.669-1.668H9.752
		C10.175,49.249,10.772,48.961,11.44,48.961z M5.416,50.444h5.933c0.511,0,0.927,0.416,0.927,0.927c0,0.511-0.416,0.927-0.927,0.927
		H5.416c-0.511,0-0.928-0.416-0.928-0.927C4.487,50.86,4.904,50.444,5.416,50.444z"/>
	<path fill="#6C7988" d="M5.416,62.311h3.53c0.554,0.783,1.464,1.299,2.495,1.299c1.687,0,3.059-1.373,3.059-3.061
		c0.001-1.688-1.372-3.063-3.059-3.063c-1.11,0-2.082,0.598-2.618,1.484H5.416c-0.92,0-1.669,0.75-1.669,1.667
		C3.747,61.563,4.496,62.311,5.416,62.311z M11.44,58.232c1.277,0,2.317,1.04,2.317,2.317s-1.04,2.316-2.317,2.316
		c-0.573,0-1.096-0.209-1.5-0.558h1.407c0.92,0,1.669-0.75,1.669-1.67c0-0.919-0.749-1.669-1.669-1.669H9.752
		C10.175,58.519,10.772,58.232,11.44,58.232z M5.416,59.715h5.933c0.511,0,0.927,0.416,0.927,0.928s-0.416,0.928-0.927,0.928H5.416
		c-0.511,0-0.928-0.416-0.928-0.928S4.904,59.715,5.416,59.715z"/>
	<path fill="#6C7988" d="M5.416,71.583h3.53c0.554,0.783,1.464,1.297,2.495,1.297c1.687,0,3.059-1.373,3.059-3.06
		c0.001-1.688-1.372-3.062-3.059-3.062c-1.11,0-2.082,0.597-2.618,1.482H5.416c-0.92,0-1.669,0.75-1.669,1.67
		S4.496,71.583,5.416,71.583z M11.44,67.502c1.277,0,2.317,1.039,2.317,2.315c0,1.274-1.04,2.313-2.317,2.313
		c-0.573,0-1.096-0.209-1.5-0.557h1.407c0.92,0,1.669-0.75,1.669-1.668c0-0.92-0.749-1.67-1.669-1.67H9.752
		C10.175,67.79,10.772,67.502,11.44,67.502z M5.416,68.984h5.933c0.511,0,0.927,0.418,0.927,0.929c0,0.51-0.416,0.928-0.927,0.928
		H5.416c-0.511,0-0.928-0.418-0.928-0.928C4.488,69.402,4.904,68.984,5.416,68.984z"/>
	<path fill="#6C7988" d="M5.416,80.852h3.53C9.5,81.635,10.41,82.15,11.44,82.15c1.687,0,3.059-1.373,3.059-3.062
		c0.001-1.688-1.372-3.063-3.059-3.063c-1.11,0-2.082,0.6-2.618,1.48H5.416c-0.92,0-1.669,0.75-1.669,1.668
		C3.747,80.102,4.496,80.852,5.416,80.852z M11.44,76.773c1.277,0,2.317,1.039,2.317,2.313s-1.04,2.314-2.317,2.314
		c-0.573,0-1.096-0.211-1.5-0.557h1.407c0.92,0,1.669-0.748,1.669-1.67c0-0.92-0.749-1.67-1.669-1.67H9.752
		C10.175,77.061,10.772,76.773,11.44,76.773z M5.416,78.256h5.933c0.511,0,0.927,0.416,0.927,0.928c0,0.51-0.416,0.928-0.927,0.928
		H5.416c-0.511,0-0.928-0.418-0.928-0.928C4.487,78.672,4.904,78.256,5.416,78.256z"/>
	<path fill="#6C7988" d="M5.416,90.122h3.53C9.5,90.904,10.41,91.42,11.44,91.42c1.687,0,3.059-1.373,3.059-3.063
		c0.001-1.688-1.372-3.062-3.059-3.062c-1.11,0-2.082,0.599-2.618,1.482H5.416c-0.92,0-1.669,0.746-1.669,1.668
		S4.496,90.122,5.416,90.122z M11.44,86.043c1.277,0,2.317,1.039,2.317,2.313s-1.04,2.315-2.317,2.315
		c-0.573,0-1.096-0.211-1.5-0.557h1.407c0.92,0,1.669-0.75,1.669-1.67c0-0.922-0.749-1.668-1.669-1.668H9.752
		C10.175,86.331,10.772,86.043,11.44,86.043z M5.416,87.525h5.933c0.511,0,0.927,0.416,0.927,0.929c0,0.51-0.416,0.928-0.927,0.928
		H5.416c-0.511,0-0.928-0.418-0.928-0.928C4.487,87.941,4.904,87.525,5.416,87.525z"/>
	<path fill="#6C7988" d="M96.078,15.218h-5.932V7.802c0-2.863-2.328-5.191-5.191-5.191H6.713v9.641H5.416
		c-0.92,0-1.669,0.749-1.669,1.668c0,0.92,0.749,1.669,1.669,1.669h3.53c0.554,0.784,1.464,1.298,2.495,1.298
		c1.687,0,3.059-1.373,3.059-3.059c0.001-1.687-1.372-3.06-3.059-3.06c-1.11,0-2.082,0.596-2.618,1.483H8.196V4.093H83.1v105.312
		H8.196v-9.641h0.749c0.554,0.781,1.464,1.297,2.495,1.297c1.687,0,3.059-1.373,3.059-3.061c0.001-1.688-1.372-3.062-3.059-3.062
		c-1.11,0-2.082,0.599-2.618,1.479H5.416c-0.92,0-1.669,0.748-1.669,1.67c0,0.918,0.749,1.668,1.669,1.668h1.298v11.123h78.242
		c2.862,0,5.19-2.323,5.19-5.188V48.59h3.707c1.271,0,2.226-1.004,2.226-2.335V36.37l-0.006,0.005
		c0.004-0.044,0.006-0.087,0.006-0.132v-9.885l-0.006,0.005c0.004-0.044,0.006-0.087,0.006-0.132L96.078,15.218L96.078,15.218z
		 M4.487,13.919c0-0.511,0.417-0.927,0.928-0.927h5.933c0.511,0,0.927,0.416,0.927,0.927c0,0.511-0.416,0.927-0.927,0.927H5.416
		C4.904,14.847,4.487,14.431,4.487,13.919z M11.44,11.51c1.277,0,2.317,1.04,2.317,2.318c0,1.278-1.04,2.317-2.317,2.317
		c-0.573,0-1.096-0.21-1.5-0.556h1.407c0.92,0,1.669-0.749,1.669-1.669s-0.749-1.668-1.669-1.668H9.752
		C10.175,11.797,10.772,11.51,11.44,11.51z M11.44,95.686c1.277,0,2.317,1.039,2.317,2.316c0,1.274-1.04,2.313-2.317,2.313
		c-0.573,0-1.096-0.209-1.5-0.556h1.407c0.92,0,1.669-0.75,1.669-1.672c0-0.92-0.749-1.67-1.669-1.67H9.752
		C10.175,95.973,10.772,95.686,11.44,95.686z M4.487,98.096c0-0.512,0.417-0.93,0.928-0.93h5.933c0.511,0,0.927,0.418,0.927,0.93
		c0,0.51-0.416,0.926-0.927,0.926H5.416C4.904,99.021,4.487,98.604,4.487,98.096z M88.662,15.833l-0.008,0.13
		c0,0.098,0.008,9.847,0.008,11.861c0,0.211,0,0.462,0,0.742c0,2.17,0,6.204,0,8.528l-0.008,0.747c0,0.092,0.008,7.443,0.008,10.007
		v0.741v57.106c0,2.046-1.662,3.707-3.707,3.707h-1.113V4.094h1.113c2.045,0,3.707,1.663,3.707,3.708V15.833z M91.041,16.701h3.031
		l-3.852,3.85c-0.012-1.136-0.018-2.196-0.021-3.012L91.041,16.701z M94.596,46.255c0,0.41-0.229,0.852-0.74,0.852h-3.602
		c-0.006-2.656-0.043-6.488-0.057-8.528h3.656h0.742V46.255L94.596,46.255z M94.596,36.243c0,0.411-0.229,0.853-0.74,0.853h-3.6
		c0-2.781-0.004-6.518-0.004-8.528h3.604h0.74V36.243z M94.596,26.23c0,0.411-0.229,0.853-0.74,0.853h-0.219l0.959-0.959V26.23z
		 M94.596,25.076l-2.008,2.008h-2.334c0-0.183,0-0.385-0.002-0.603l4.344-4.343V25.076z M94.596,21.089l-4.348,4.347
		c-0.006-1.141-0.014-2.507-0.021-3.844l4.369-4.368V21.089L94.596,21.089z"/>
</g>
<g opacity="0.2">
	<path fill="#6C7988" d="M6.713,110.887V99.764H5.416c-0.92,0-1.669-0.75-1.669-1.668c0-0.922,0.749-1.67,1.669-1.67h1.298v-6.305
		H5.416c-0.92,0-1.669-0.75-1.669-1.668c0-0.92,0.749-1.67,1.669-1.67h1.298V80.85H5.416c-0.92,0-1.669-0.75-1.669-1.67
		c0-0.918,0.749-1.668,1.669-1.668h1.298v-5.934H5.416c-0.92,0-1.669-0.75-1.669-1.668c0-0.92,0.749-1.67,1.669-1.67h1.298V62.31
		H5.416c-0.92,0-1.669-0.75-1.669-1.67c0-0.918,0.749-1.668,1.669-1.668h1.298v-5.934H5.416c-0.92,0-1.669-0.749-1.669-1.669
		c0-0.919,0.749-1.668,1.669-1.668h1.298v-5.934H5.416c-0.92,0-1.669-0.749-1.669-1.669c0-0.919,0.749-1.668,1.669-1.668h1.298
		v-5.934H5.416c-0.92,0-1.669-0.749-1.669-1.668c0-0.921,0.749-1.669,1.669-1.669h1.298v-6.304H5.416
		c-0.92,0-1.669-0.749-1.669-1.669s0.749-1.668,1.669-1.668h1.298v-5.933H5.416c-0.92,0-1.669-0.749-1.669-1.669
		s0.749-1.668,1.669-1.668h1.298v-5.19H4.487c0,0.781,0,4.155,0,9.271H2.449c-0.717,0-1.298,0.581-1.298,1.298
		s0.581,1.298,1.298,1.298h2.039c0,2.03,0,4.269,0,6.674H2.449c-0.717,0-1.298,0.581-1.298,1.298c0,0.717,0.581,1.298,1.298,1.298
		h2.039c0,2.236,0,4.593,0,7.046H2.449c-0.717,0-1.298,0.581-1.298,1.298c0,0.716,0.581,1.297,1.298,1.297h2.039
		c0,2.168,0,4.398,0,6.676H2.449c-0.717,0-1.298,0.581-1.298,1.297c0,0.717,0.581,1.298,1.298,1.298h2.039c0,2.195,0,4.425,0,6.675
		H2.449c-0.717,0-1.298,0.581-1.298,1.298s0.581,1.298,1.298,1.298h2.039c0,2.218,0,4.447,0,6.675H2.449
		c-0.717,0-1.298,0.58-1.298,1.299c0,0.717,0.581,1.297,1.298,1.297h2.039c0,2.236,0,4.467,0,6.676H2.449
		c-0.717,0-1.298,0.58-1.298,1.299c0,0.717,0.581,1.299,1.298,1.299h2.039c0,2.261,0,4.486,0,6.677H2.449
		c-0.717,0-1.298,0.581-1.298,1.299c0,0.72,0.581,1.3,1.298,1.3h2.039c0,2.284,0,4.52,0,6.676H2.449
		c-0.717,0-1.298,0.58-1.298,1.297c0,0.719,0.581,1.299,1.298,1.299h2.039c0,2.475,0,4.834,0,7.045H2.449
		c-0.717,0-1.298,0.58-1.298,1.299c0,0.717,0.581,1.299,1.298,1.299h2.039c0,4.375,0,7.313,0,10.014h74.534
		c1.938,0,3.578-0.498,4.189-2.229H6.713V110.887z"/>
</g>
<path fill="#6C7988" d="M112.193,1.167l-5.656,20.888v75.607v5.653v5.656h11.313v-5.656v-5.653V22.055L112.193,1.167z
	 M110.883,11.413h2.619l2.852,10.528c-0.502,0.604-0.797,0.684-0.914,0.677c-0.355-0.014-0.773-0.741-1.021-1.176l-0.381-0.664
	l-0.426,0.639c-0.334,0.505-0.959,1.451-1.521,1.412c-0.381-0.023-0.827-0.507-1.264-1.364l-0.361-0.718l-0.448,0.667
	c-0.535,0.796-1.039,1.211-1.412,1.161c-0.235-0.03-0.446-0.244-0.608-0.479L110.883,11.413z M116.436,99.077v2.827h-8.48v-2.827
	H116.436z M110.779,97.663V23.091c0.391,0.427,0.807,0.651,1.254,0.677c0.029,0.002,0.059,0.003,0.088,0.003
	c0.588,0,1.084-0.352,1.486-0.781v74.67L110.779,97.663L110.779,97.663z M107.951,23.333c0.158,0.087,0.334,0.152,0.527,0.177
	c0.445,0.059,0.898-0.102,1.354-0.47v74.623h-1.885v-74.33H107.951z M116.436,107.561h-8.48v-4.242h8.48V107.561z M114.549,97.663
	V23.203c0.244,0.203,0.525,0.345,0.855,0.356c0.34,0.015,0.68-0.107,1.029-0.375v74.479H114.549L114.549,97.663z"/>
<g opacity="0.2">
	<polygon fill="#6C7988" points="106.537,108.975 106.537,22.055 110.76,6.46 109.836,3.052 104.182,23.938 104.182,110.859 
		115.492,110.859 115.492,108.975 	"/>
</g>
<g opacity="0.2">
	<path fill="#6C7988" d="M131.292,111.159c0.44,0,0.708-0.3,0.708-0.74V107.6l-3.467-6.854c-0.041-0.092-0.236-0.188-0.236-0.289
		c0,0-0.105-29.006-0.105-53.551c0-8.999-0.041-17.397-0.033-23.547c0.005-3.075-0.01-8.886-0.008-9.349
		c0.011-0.842,0.059-1.398,0.761-1.398c0.261,0,1.091,0,1.091-0.002V6.831c0-1.507,0.936-2.732,2.291-3.185
		c-0.409-0.395-0.986-0.587-1.604-0.587h-0.166c-1.5,0-3.021,1.108-3.051,2.813l0.029,6.609c0,0.002-0.279,0.016-0.469,0.016
		c-1.031,0-1.031,0.969-1.031,0.969v86.056l3.461,7.475l0.539,0.002v3.42C130,111.31,130.85,111.159,131.292,111.159z"/>
</g>
<path fill="#6C7988" d="M138.764,13.291c0-0.386-0.229-0.699-0.617-0.699c-0.299,0-0.146,0-1.146,0.001V6.831
	c0.021-2.313-1.63-3.771-3.515-3.771c0,0-3.485-0.125-3.485,3.771v5.776c0,0.001-0.836,0.002-1.097,0.002
	c-0.702,0-0.731,0.556-0.737,1.398c-0.006,0.463-0.021,1.144-0.024,2.017c-0.007,1.744-0.017,84.43-0.017,84.43
	c0,0.102,0.021,0.198,0.063,0.289l3.396,7.475c0.113,0.25,0.356,0.41,0.632,0.41h0.387v2.404c0,0.6,0.485,1.086,1.086,1.086
	s1.086-0.486,1.086-1.086v-2.396h0.431c0.289,0.003,0.53-0.176,0.64-0.443l2.998-7.576c0.032-0.082,0.042-0.17,0.042-0.257
	L138.764,13.291z M132,6.831c0-1.834,1.484-1.771,1.484-1.771c1,0,1.516,0.659,1.516,1.771v5.765c-1,0.001-0.885,0.003-1.65,0.004
	c-0.67,0.002-1.35,0.004-1.35,0.004V6.831z M133.256,14c1.516-0.003,3.063-0.007,4.114-0.008l0.125,85.317H132v-85.25
	c0-0.02-0.009-0.037-0.012-0.056C132.402,14.002,132.825,14.001,133.256,14z M129.541,14.008c0.412,0,0.92-0.002,1.47-0.003
	C131.009,14.024,131,14.04,131,14.059v85.25h-1.477C129.521,89.702,129.521,16.015,129.541,14.008z M134.744,107.235l-2.067-0.005
	l-2.921-6.421h7.512L134.744,107.235z"/>
<path fill="#6C7988" d="M156,105.842V91.276c0-1.225-0.992-2.217-2.217-2.217h-5.566c-1.225,0-2.217,0.992-2.217,2.217v14.566
	c0,1.225,0.992,2.217,2.217,2.217h5.566C155.008,108.059,156,107.067,156,105.842z M148.739,91.059h4.521
	c0.408,0,0.739,0.331,0.739,0.738v11.262h-6V91.797C148,91.39,148.331,91.059,148.739,91.059z M148.739,106.059
	c-0.408,0-0.739-0.331-0.739-0.739v-1.261h6v1.261c0,0.408-0.331,0.739-0.739,0.739H148.739z"/>
<g>
	<g opacity="0.2">
		<path fill="#6C7988" d="M146,105.415c0,1.224,0.943,2.158,2.166,2.158l6.195,0.057c0,1.021-0.738,1.432-1.426,1.432h-5.482
			c-1.672,0-2.453-1.725-2.453-2.539V92.483c0-0.688,0-1.261,1-1.425V105.415z"/>
	</g>
</g>
<g opacity="0.1">
	<path d="M42.306,48.709c-0.498-0.277-1.925-0.106-3.64,0.426c-3.001,2.051-5.533,5.072-5.71,9.924
		c-0.032,0.117-0.328-0.014-0.386-0.049c-0.811-1.555-1.131-3.192-0.455-5.551c0.125-0.21-0.287-0.469-0.361-0.394
		c-0.149,0.146-0.769,0.807-1.18,1.521c-2.037,3.536-0.704,8.067,2.861,10.049c3.567,1.986,8.067,0.705,10.053-2.865
		C45.785,57.661,43.652,49.462,42.306,48.709z"/>
	<g>
		<path d="M55.07,50.685c-4.23,0-7.297,3.145-7.297,7.472c0,4.367,3.062,7.416,7.444,7.416c2.214,0,3.967-0.693,5.359-2.117
			c0.417-0.451,0.462-0.885,0.462-1.049c0-0.707-0.525-1.221-1.248-1.221c-0.365,0-0.67,0.139-1.021,0.461
			c-0.789,0.734-1.827,1.488-3.553,1.488c-2.399,0-4.35-1.803-4.473-4.113h9.548c1.039,0,1.541-0.488,1.541-1.484
			c0-0.295,0-0.505-0.057-0.925C61.258,52.902,58.753,50.685,55.07,50.685L55.07,50.685z M55.07,53.001
			c2.29,0,3.762,1.465,3.853,3.821h-8.177C50.96,54.639,52.806,53.001,55.07,53.001z M70.949,50.685
			c-1.92,0-3.819,1.105-4.563,2.639v-0.95c0-1.465-1.138-1.542-1.366-1.542c-0.674,0-1.395,0.407-1.395,1.542v11.448
			c0,1.525,1.212,1.605,1.453,1.605c0.242,0,1.455-0.078,1.455-1.605v-6.137c0-2.669,1.513-4.534,3.68-4.534
			c2.097,0,3.117,1.374,3.117,4.208v6.463c0,1.525,1.211,1.605,1.453,1.605c0.245,0,1.457-0.078,1.457-1.605v-7.374
			C76.24,53.659,74.851,50.685,70.949,50.685L70.949,50.685z M89.399,50.831c-0.674,0-1.158,0.392-1.451,1.164L83.97,62
			l-3.951-10.005c-0.304-0.783-0.791-1.164-1.476-1.164c-0.804,0-1.453,0.629-1.453,1.393c0,0.194,0.021,0.439,0.181,0.828
			l4.569,10.794c0.549,1.303,1.443,1.576,2.101,1.576c0.658,0,1.556-0.273,2.099-1.576L90.64,52.99
			c0.16-0.38,0.185-0.66,0.185-0.793C90.824,51.42,90.212,50.831,89.399,50.831z M97.858,50.685c-1.863,0-3.594,0.52-4.881,1.459
			c-0.434,0.299-0.646,0.677-0.646,1.148c0,0.649,0.495,1.158,1.129,1.158c0.277,0,0.58-0.109,0.863-0.307
			c1.104-0.737,2.143-1.081,3.27-1.081c2.148,0,3.384,1.092,3.384,3.001v0.316c-4.827,0.006-9.74,0.586-9.74,4.785
			c0,3.025,2.586,4.379,5.147,4.379c2.037,0,3.666-0.807,4.71-2.336v0.732c0,1.098,0.735,1.486,1.366,1.486
			c0.133,0,1.305-0.043,1.305-1.486v-7.701C103.768,52.762,101.558,50.685,97.858,50.685z M100.364,58.522h0.612v0.67
			c0,2.449-1.563,4.035-3.976,4.035c-0.657,0-2.795-0.156-2.795-2.121C94.206,58.788,97.721,58.522,100.364,58.522L100.364,58.522z
			 M111.34,53.473c1.273,0,1.335-0.99,1.335-1.188c0-0.589-0.35-1.217-1.335-1.217h-2.617v-2.649c0-1.183-0.767-1.601-1.425-1.601
			c-0.244,0-1.453,0.077-1.453,1.601v12.57c0,2.9,1.43,4.434,4.135,4.434c0.7,0,1.385-0.121,1.832-0.332
			c0.512-0.256,0.805-0.674,0.805-1.152c0-0.672-0.488-1.158-1.159-1.158c-0.13,0-0.313,0.031-0.519,0.09
			c-0.251,0.064-0.416,0.088-0.602,0.088c-1.103,0-1.614-0.723-1.614-2.264v-7.221H111.34L111.34,53.473z M120.958,50.685
			c-4.401,0-7.592,3.121-7.592,7.414c0,2.092,0.772,4,2.179,5.367c1.393,1.359,3.313,2.104,5.41,2.104
			c4.343,0,7.621-3.211,7.621-7.471C128.576,53.803,125.373,50.685,120.958,50.685L120.958,50.685z M120.958,63.106
			c-3.017,0-4.593-2.521-4.593-5.008c0-3.419,2.38-4.977,4.593-4.977s4.596,1.558,4.596,4.977
			C125.552,61.542,123.171,63.106,120.958,63.106z"/>
	</g>
</g>
</svg>
