<?xml version="1.0" encoding="UTF-8" standalone="no"?>
<!-- Created with Inkscape (http://www.inkscape.org/) -->

<svg
   xmlns:dc="http://purl.org/dc/elements/1.1/"
   xmlns:cc="http://creativecommons.org/ns#"
   xmlns:rdf="http://www.w3.org/1999/02/22-rdf-syntax-ns#"
   xmlns:svg="http://www.w3.org/2000/svg"
   xmlns="http://www.w3.org/2000/svg"
   xmlns:sodipodi="http://sodipodi.sourceforge.net/DTD/sodipodi-0.dtd"
   xmlns:inkscape="http://www.inkscape.org/namespaces/inkscape"
   version="1.1"
   id="svg2"
   xml:space="preserve"
   width="210"
   height="175"
   viewBox="0 0 209.99999 174.99999"
   sodipodi:docname="menu-resume.svg"
   inkscape:version="0.92.1 r"><metadata
     id="metadata8"><rdf:RDF><cc:Work
         rdf:about=""><dc:format>image/svg+xml</dc:format><dc:type
           rdf:resource="http://purl.org/dc/dcmitype/StillImage" /><dc:title></dc:title></cc:Work></rdf:RDF></metadata><defs
     id="defs6" /><sodipodi:namedview
     pagecolor="#ffffff"
     bordercolor="#666666"
     borderopacity="1"
     objecttolerance="10"
     gridtolerance="10"
     guidetolerance="10"
     inkscape:pageopacity="0"
     inkscape:pageshadow="2"
     inkscape:window-width="1366"
     inkscape:window-height="706"
     id="namedview4"
     showgrid="false"
     inkscape:zoom="1.2515789"
     inkscape:cx="304.85634"
     inkscape:cy="62.623916"
     inkscape:window-x="0"
     inkscape:window-y="25"
     inkscape:window-maximized="1"
     inkscape:current-layer="g10" /><g
     id="g10"
     inkscape:groupmode="layer"
     inkscape:label="06"
     transform="matrix(1.3333333,0,0,-1.3333333,0,174.99995)"><g
       id="g3765"
       transform="matrix(0.37009825,0,0,0.37009825,-70.726013,-149.98435)"><g
         transform="translate(574.77,415.2354)"
         id="g1992"><path
           inkscape:connector-curvature="0"
           id="path1994"
           style="fill:#f2f2f2;fill-opacity:1;fill-rule:nonzero;stroke:none"
           d="m 0,0 c 0,-1.982 -1.665,-3.592 -3.72,-3.592 h -335.379 c -2.053,0 -3.718,1.61 -3.718,3.592 v 217.35 c 0,1.983 1.665,3.592 3.718,3.592 H -3.72 c 2.055,0 3.72,-1.609 3.72,-3.592 z" /></g><g
         transform="translate(541.1519,603.9131)"
         id="g1996"><path
           inkscape:connector-curvature="0"
           id="path1998"
           style="fill:#424242;fill-opacity:1;fill-rule:evenodd;stroke:none"
           d="m 0,0 h 10.673 c 1.216,0 2.205,-0.994 2.205,-2.206 v -7.934 c 0,-1.208 -0.989,-2.205 -2.205,-2.205 H 0 c -1.211,0 -2.205,0.997 -2.205,2.205 v 7.934 C -2.205,-0.994 -1.213,0 0,0" /></g><g
         transform="translate(541.6392,588.7827)"
         id="g2000"><path
           inkscape:connector-curvature="0"
           id="path2002"
           style="fill:#424242;fill-opacity:1;fill-rule:evenodd;stroke:none"
           d="m 0,0 h 9.695 c 1.485,0 2.698,-1.214 2.698,-2.694 v -10.75 c 0,-1.48 -1.213,-2.695 -2.698,-2.695 H 0 c -1.479,0 -2.692,1.215 -2.692,2.695 v 10.75 C -2.692,-1.214 -1.479,0 0,0" /></g><g
         transform="translate(541.6392,569.8545)"
         id="g2004"><path
           inkscape:connector-curvature="0"
           id="path2006"
           style="fill:#424242;fill-opacity:1;fill-rule:evenodd;stroke:none"
           d="m 0,0 h 9.695 c 1.485,0 2.698,-1.209 2.698,-2.691 v -10.746 c 0,-1.483 -1.213,-2.695 -2.698,-2.695 H 0 c -1.479,0 -2.692,1.212 -2.692,2.695 V -2.691 C -2.692,-1.209 -1.479,0 0,0" /></g><g
         transform="translate(541.6392,550.9292)"
         id="g2008"><path
           inkscape:connector-curvature="0"
           id="path2010"
           style="fill:#424242;fill-opacity:1;fill-rule:evenodd;stroke:none"
           d="m 0,0 h 9.695 c 1.485,0 2.698,-1.212 2.698,-2.694 v -10.745 c 0,-1.481 -1.213,-2.691 -2.698,-2.691 H 0 c -1.479,0 -2.692,1.21 -2.692,2.691 V -2.694 C -2.692,-1.212 -1.479,0 0,0" /></g><g
         transform="translate(541.6392,532.0083)"
         id="g2012"><path
           inkscape:connector-curvature="0"
           id="path2014"
           style="fill:#424242;fill-opacity:1;fill-rule:evenodd;stroke:none"
           d="m 0,0 h 9.695 c 1.485,0 2.698,-1.212 2.698,-2.691 v -10.747 c 0,-1.48 -1.213,-2.694 -2.698,-2.694 H 0 c -1.479,0 -2.692,1.214 -2.692,2.694 V -2.691 C -2.692,-1.212 -1.479,0 0,0" /></g><g
         transform="translate(541.6392,513.0845)"
         id="g2016"><path
           inkscape:connector-curvature="0"
           id="path2018"
           style="fill:#424242;fill-opacity:1;fill-rule:evenodd;stroke:none"
           d="m 0,0 h 9.695 c 1.485,0 2.698,-1.209 2.698,-2.692 v -10.746 c 0,-1.479 -1.213,-2.691 -2.698,-2.691 H 0 c -1.479,0 -2.692,1.212 -2.692,2.691 V -2.692 C -2.692,-1.209 -1.479,0 0,0" /></g><g
         transform="translate(522.2944,603.9131)"
         id="g2020"><path
           inkscape:connector-curvature="0"
           id="path2022"
           style="fill:#424242;fill-opacity:1;fill-rule:evenodd;stroke:none"
           d="m 0,0 h 10.677 c 1.208,0 2.207,-0.994 2.207,-2.206 v -7.934 c 0,-1.208 -0.999,-2.205 -2.206,-2.205 H 0 c -1.213,0 -2.202,0.997 -2.202,2.205 v 7.934 C -2.202,-0.994 -1.213,0 0,0" /></g><g
         transform="translate(505.5591,588.7827)"
         id="g2024"><path
           inkscape:connector-curvature="0"
           id="path2026"
           style="fill:#424242;fill-opacity:1;fill-rule:evenodd;stroke:none"
           d="m 0,0 h 26.73 c 1.588,0 2.887,-1.302 2.887,-2.886 v -10.368 c 0,-1.586 -1.299,-2.885 -2.887,-2.885 H 0 c -1.586,0 -2.883,1.299 -2.883,2.885 V -2.886 C -2.883,-1.302 -1.586,0 0,0" /></g><g
         transform="translate(517.8325,569.8545)"
         id="g2028"><path
           inkscape:connector-curvature="0"
           id="path2030"
           style="fill:#424242;fill-opacity:1;fill-rule:evenodd;stroke:none"
           d="m 0,0 h 14.457 c 1.588,0 2.889,-1.296 2.889,-2.88 v -10.367 c 0,-1.588 -1.301,-2.885 -2.889,-2.885 H 0 c -1.587,0 -2.882,1.297 -2.882,2.885 V -2.88 C -2.882,-1.296 -1.587,0 0,0" /></g><g
         transform="translate(503.4331,550.9292)"
         id="g2032"><path
           inkscape:connector-curvature="0"
           id="path2034"
           style="fill:#424242;fill-opacity:1;fill-rule:evenodd;stroke:none"
           d="m 0,0 h 28.858 c 1.586,0 2.885,-1.292 2.885,-2.88 v -10.371 c 0,-1.582 -1.299,-2.879 -2.885,-2.879 L 0,-16.13 c -1.586,0 -2.881,1.297 -2.881,2.879 V -2.88 C -2.881,-1.292 -1.586,0 0,0" /></g><g
         transform="translate(522.7856,532.0083)"
         id="g2036"><path
           inkscape:connector-curvature="0"
           id="path2038"
           style="fill:#424242;fill-opacity:1;fill-rule:evenodd;stroke:none"
           d="m 0,0 h 9.691 c 1.485,0 2.7,-1.212 2.7,-2.691 v -10.747 c 0,-1.48 -1.215,-2.694 -2.7,-2.694 H 0 c -1.48,0 -2.693,1.214 -2.693,2.694 V -2.691 C -2.693,-1.212 -1.48,0 0,0" /></g><g
         transform="translate(522.7856,513.0845)"
         id="g2040"><path
           inkscape:connector-curvature="0"
           id="path2042"
           style="fill:#424242;fill-opacity:1;fill-rule:evenodd;stroke:none"
           d="m 0,0 h 9.691 c 1.485,0 2.7,-1.209 2.7,-2.692 v -10.746 c 0,-1.479 -1.215,-2.691 -2.7,-2.691 H 0 c -1.48,0 -2.693,1.212 -2.693,2.691 V -2.692 C -2.693,-1.209 -1.48,0 0,0" /></g><g
         transform="translate(504.8813,603.9131)"
         id="g2044"><path
           inkscape:connector-curvature="0"
           id="path2046"
           style="fill:#424242;fill-opacity:1;fill-rule:evenodd;stroke:none"
           d="m 0,0 h 9.231 c 1.215,0 2.207,-0.994 2.207,-2.206 v -7.934 c 0,-1.208 -0.99,-2.205 -2.205,-2.205 H 0 c -1.216,0 -2.205,0.997 -2.205,2.205 v 7.934 C -2.205,-0.994 -1.216,0 0,0" /></g><g
         transform="translate(487.1782,603.9131)"
         id="g2048"><path
           inkscape:connector-curvature="0"
           id="path2050"
           style="fill:#424242;fill-opacity:1;fill-rule:evenodd;stroke:none"
           d="m 0,0 h 9.237 c 1.211,0 2.205,-0.994 2.205,-2.206 v -7.934 c 0,-1.208 -0.993,-2.205 -2.205,-2.205 H 0.002 c -1.211,0 -2.203,0.997 -2.203,2.205 v 7.934 C -2.201,-0.994 -1.211,0 0,0" /></g><g
         transform="translate(469.48,603.9131)"
         id="g2052"><path
           inkscape:connector-curvature="0"
           id="path2054"
           style="fill:#424242;fill-opacity:1;fill-rule:evenodd;stroke:none"
           d="m 0,0 h 9.234 c 1.212,0 2.207,-0.994 2.207,-2.206 v -7.934 c 0,-1.208 -0.993,-2.205 -2.207,-2.205 H 0 c -1.212,0 -2.205,0.997 -2.205,2.205 v 7.934 C -2.205,-0.994 -1.214,0 0,0" /></g><g
         transform="translate(451.7788,603.9131)"
         id="g2056"><path
           inkscape:connector-curvature="0"
           id="path2058"
           style="fill:#424242;fill-opacity:1;fill-rule:evenodd;stroke:none"
           d="m 0,0 h 9.235 c 1.211,0 2.205,-0.994 2.205,-2.206 v -7.934 c 0,-1.208 -0.992,-2.205 -2.203,-2.205 H 0 c -1.212,0 -2.205,0.997 -2.205,2.205 v 7.934 C -2.205,-0.994 -1.212,0 0,0" /></g><g
         transform="translate(434.0815,603.9131)"
         id="g2060"><path
           inkscape:connector-curvature="0"
           id="path2062"
           style="fill:#424242;fill-opacity:1;fill-rule:evenodd;stroke:none"
           d="m 0,0 h 9.231 c 1.211,0 2.206,-0.994 2.206,-2.206 v -7.934 c 0,-1.208 -0.994,-2.205 -2.206,-2.205 H 0.002 c -1.219,0 -2.213,0.997 -2.213,2.205 v 7.934 C -2.211,-0.994 -1.217,0 0,0" /></g><g
         transform="translate(416.3794,603.9131)"
         id="g2064"><path
           inkscape:connector-curvature="0"
           id="path2066"
           style="fill:#424242;fill-opacity:1;fill-rule:evenodd;stroke:none"
           d="m 0,0 h 9.232 c 1.216,0 2.209,-0.994 2.209,-2.206 v -7.934 c 0,-1.208 -0.991,-2.205 -2.207,-2.205 H 0.002 c -1.21,0 -2.207,0.997 -2.207,2.205 v 7.934 C -2.205,-0.994 -1.208,0 0,0" /></g><g
         transform="translate(398.6797,603.9131)"
         id="g2068"><path
           inkscape:connector-curvature="0"
           id="path2070"
           style="fill:#424242;fill-opacity:1;fill-rule:evenodd;stroke:none"
           d="m 0,0 h 9.234 c 1.215,0 2.203,-0.994 2.203,-2.206 v -7.934 c 0,-1.208 -0.988,-2.205 -2.203,-2.205 H 0 c -1.213,0 -2.206,0.997 -2.206,2.205 v 7.934 C -2.206,-0.994 -1.213,0 0,0" /></g><g
         transform="translate(380.9795,603.9131)"
         id="g2072"><path
           inkscape:connector-curvature="0"
           id="path2074"
           style="fill:#424242;fill-opacity:1;fill-rule:evenodd;stroke:none"
           d="m 0,0 h 9.233 c 1.215,0 2.207,-0.994 2.207,-2.206 v -7.934 c 0,-1.208 -0.991,-2.205 -2.206,-2.205 H 0 c -1.212,0 -2.206,0.997 -2.206,2.205 v 7.934 C -2.206,-0.994 -1.212,0 0,0" /></g><g
         transform="translate(363.2788,603.9131)"
         id="g2076"><path
           inkscape:connector-curvature="0"
           id="path2078"
           style="fill:#424242;fill-opacity:1;fill-rule:evenodd;stroke:none"
           d="m 0,0 h 9.234 c 1.214,0 2.205,-0.994 2.205,-2.206 v -7.934 c 0,-1.208 -0.99,-2.205 -2.204,-2.205 H 0 c -1.211,0 -2.204,0.997 -2.204,2.205 v 7.934 C -2.204,-0.994 -1.211,0 0,0" /></g><g
         transform="translate(345.5781,603.9131)"
         id="g2080"><path
           inkscape:connector-curvature="0"
           id="path2082"
           style="fill:#424242;fill-opacity:1;fill-rule:evenodd;stroke:none"
           d="m 0,0 h 9.235 c 1.214,0 2.205,-0.994 2.205,-2.206 v -7.934 c 0,-1.208 -0.991,-2.205 -2.205,-2.205 H 0 c -1.21,0 -2.204,0.997 -2.204,2.205 v 7.934 C -2.204,-0.994 -1.21,0 0,0" /></g><g
         transform="translate(327.8794,603.9131)"
         id="g2084"><path
           inkscape:connector-curvature="0"
           id="path2086"
           style="fill:#424242;fill-opacity:1;fill-rule:evenodd;stroke:none"
           d="m 0,0 h 9.234 c 1.212,0 2.205,-0.994 2.205,-2.206 v -7.934 c 0,-1.208 -0.993,-2.205 -2.205,-2.205 H 0 c -1.213,0 -2.205,0.997 -2.205,2.205 v 7.934 C -2.205,-0.994 -1.213,0 0,0" /></g><g
         transform="translate(310.1782,603.9131)"
         id="g2088"><path
           inkscape:connector-curvature="0"
           id="path2090"
           style="fill:#424242;fill-opacity:1;fill-rule:evenodd;stroke:none"
           d="m 0,0 h 9.236 c 1.213,0 2.205,-0.994 2.205,-2.206 v -7.934 c 0,-1.208 -0.992,-2.205 -2.205,-2.205 H 0 c -1.212,0 -2.204,0.997 -2.204,2.205 v 7.934 C -2.204,-0.994 -1.212,0 0,0" /></g><g
         transform="translate(292.4805,603.9131)"
         id="g2092"><path
           inkscape:connector-curvature="0"
           id="path2094"
           style="fill:#424242;fill-opacity:1;fill-rule:evenodd;stroke:none"
           d="m 0,0 h 9.231 c 1.214,0 2.206,-0.994 2.206,-2.206 v -7.934 c 0,-1.208 -0.992,-2.205 -2.206,-2.205 H 0 c -1.215,0 -2.205,0.997 -2.205,2.205 v 7.934 C -2.205,-0.994 -1.215,0 0,0" /></g><g
         transform="translate(274.7769,603.9131)"
         id="g2096"><path
           inkscape:connector-curvature="0"
           id="path2098"
           style="fill:#424242;fill-opacity:1;fill-rule:evenodd;stroke:none"
           d="m 0,0 h 9.236 c 1.213,0 2.207,-0.994 2.207,-2.206 v -7.934 c 0,-1.208 -0.994,-2.205 -2.207,-2.205 H 0 c -1.211,0 -2.203,0.997 -2.203,2.205 v 7.934 C -2.203,-0.994 -1.211,0 0,0" /></g><g
         transform="translate(254.8955,603.9131)"
         id="g2100"><path
           inkscape:connector-curvature="0"
           id="path2102"
           style="fill:#424242;fill-opacity:1;fill-rule:evenodd;stroke:none"
           d="m 0,0 h 10.672 c 1.216,0 2.206,-0.994 2.206,-2.206 v -7.934 c 0,-1.208 -0.99,-2.205 -2.206,-2.205 H 0 c -1.213,0 -2.206,0.997 -2.206,2.205 v 7.934 C -2.206,-0.994 -1.213,0 0,0" /></g><g
         transform="translate(486.4614,588.7827)"
         id="g2104"><path
           inkscape:connector-curvature="0"
           id="path2106"
           style="fill:#424242;fill-opacity:1;fill-rule:evenodd;stroke:none"
           d="m 0,0 h 9.513 c 1.453,0 2.644,-1.192 2.644,-2.648 v -10.844 c 0,-1.453 -1.191,-2.647 -2.644,-2.647 H 0 c -1.453,0 -2.646,1.194 -2.646,2.647 V -2.648 C -2.646,-1.192 -1.453,0 0,0" /></g><g
         transform="translate(467.2563,588.7827)"
         id="g2108"><path
           inkscape:connector-curvature="0"
           id="path2110"
           style="fill:#424242;fill-opacity:1;fill-rule:evenodd;stroke:none"
           d="m 0,0 h 9.516 c 1.458,0 2.643,-1.192 2.643,-2.648 v -10.844 c 0,-1.453 -1.185,-2.647 -2.643,-2.647 H 0 c -1.45,0 -2.646,1.194 -2.646,2.647 V -2.648 C -2.646,-1.192 -1.45,0 0,0" /></g><g
         transform="translate(448.0522,588.7827)"
         id="g2112"><path
           inkscape:connector-curvature="0"
           id="path2114"
           style="fill:#424242;fill-opacity:1;fill-rule:evenodd;stroke:none"
           d="m 0,0 h 9.517 c 1.454,0 2.64,-1.192 2.64,-2.648 v -10.844 c 0,-1.453 -1.186,-2.647 -2.64,-2.647 H 0 c -1.455,0 -2.645,1.194 -2.645,2.647 V -2.648 C -2.645,-1.192 -1.455,0 0,0" /></g><g
         transform="translate(428.8491,588.7827)"
         id="g2116"><path
           inkscape:connector-curvature="0"
           id="path2118"
           style="fill:#424242;fill-opacity:1;fill-rule:evenodd;stroke:none"
           d="m 0,0 h 9.515 c 1.455,0 2.642,-1.192 2.642,-2.648 v -10.844 c 0,-1.453 -1.187,-2.647 -2.642,-2.647 H 0 c -1.457,0 -2.646,1.194 -2.646,2.647 V -2.648 C -2.646,-1.192 -1.457,0 0,0" /></g><g
         transform="translate(409.644,588.7827)"
         id="g2120"><path
           inkscape:connector-curvature="0"
           id="path2122"
           style="fill:#424242;fill-opacity:1;fill-rule:evenodd;stroke:none"
           d="m 0,0 h 9.516 c 1.452,0 2.643,-1.192 2.643,-2.648 v -10.844 c 0,-1.453 -1.191,-2.647 -2.643,-2.647 L 0,-16.141 c -1.452,0 -2.641,1.195 -2.641,2.649 V -2.648 C -2.641,-1.192 -1.452,0 0,0" /></g><g
         transform="translate(390.439,588.7827)"
         id="g2124"><path
           inkscape:connector-curvature="0"
           id="path2126"
           style="fill:#424242;fill-opacity:1;fill-rule:evenodd;stroke:none"
           d="m 0,0 h 9.518 c 1.453,0 2.643,-1.192 2.643,-2.648 v -10.844 c 0,-1.454 -1.19,-2.649 -2.643,-2.649 H 0 c -1.454,0 -2.644,1.195 -2.644,2.649 V -2.648 C -2.644,-1.192 -1.454,0 0,0" /></g><g
         transform="translate(371.2363,588.7827)"
         id="g2128"><path
           inkscape:connector-curvature="0"
           id="path2130"
           style="fill:#424242;fill-opacity:1;fill-rule:evenodd;stroke:none"
           d="m 0,0 h 9.517 c 1.451,0 2.646,-1.192 2.646,-2.648 v -10.844 c 0,-1.454 -1.195,-2.649 -2.646,-2.649 H 0 c -1.452,0 -2.645,1.195 -2.645,2.649 V -2.648 C -2.645,-1.192 -1.452,0 0,0" /></g><g
         transform="translate(352.0332,588.7827)"
         id="g2132"><path
           inkscape:connector-curvature="0"
           id="path2134"
           style="fill:#424242;fill-opacity:1;fill-rule:evenodd;stroke:none"
           d="m 0,0 h 9.514 c 1.457,0 2.647,-1.192 2.647,-2.648 v -10.844 c 0,-1.454 -1.19,-2.649 -2.647,-2.649 H 0 c -1.456,0 -2.644,1.195 -2.644,2.649 V -2.648 C -2.644,-1.192 -1.456,0 0,0" /></g><g
         transform="translate(332.8296,588.7827)"
         id="g2136"><path
           inkscape:connector-curvature="0"
           id="path2138"
           style="fill:#424242;fill-opacity:1;fill-rule:evenodd;stroke:none"
           d="m 0,0 h 9.514 c 1.455,0 2.644,-1.192 2.644,-2.648 v -10.844 c 0,-1.454 -1.189,-2.649 -2.644,-2.649 H 0 c -1.455,0 -2.644,1.195 -2.644,2.649 V -2.648 C -2.644,-1.192 -1.455,0 0,0" /></g><g
         transform="translate(313.6274,588.7827)"
         id="g2140"><path
           inkscape:connector-curvature="0"
           id="path2142"
           style="fill:#424242;fill-opacity:1;fill-rule:evenodd;stroke:none"
           d="m 0,0 h 9.512 c 1.456,0 2.644,-1.192 2.644,-2.648 v -10.844 c 0,-1.454 -1.188,-2.649 -2.644,-2.649 H 0 c -1.456,0 -2.646,1.195 -2.646,2.649 V -2.648 C -2.646,-1.192 -1.456,0 0,0" /></g><g
         transform="translate(294.4199,588.7827)"
         id="g2144"><path
           inkscape:connector-curvature="0"
           id="path2146"
           style="fill:#424242;fill-opacity:1;fill-rule:evenodd;stroke:none"
           d="m 0,0 h 9.518 c 1.454,0 2.643,-1.192 2.643,-2.648 v -10.844 c 0,-1.454 -1.189,-2.649 -2.643,-2.649 H 0 c -1.454,0 -2.643,1.195 -2.643,2.649 V -2.648 C -2.643,-1.192 -1.454,0 0,0" /></g><g
         transform="translate(275.2183,588.7827)"
         id="g2148"><path
           inkscape:connector-curvature="0"
           id="path2150"
           style="fill:#424242;fill-opacity:1;fill-rule:evenodd;stroke:none"
           d="m 0,0 h 9.515 c 1.453,0 2.645,-1.192 2.645,-2.648 v -10.844 c 0,-1.454 -1.192,-2.649 -2.645,-2.649 H 0 c -1.455,0 -2.645,1.195 -2.645,2.649 V -2.648 C -2.645,-1.192 -1.455,0 0,0" /></g><g
         transform="translate(255.3838,588.7827)"
         id="g2152"><path
           inkscape:connector-curvature="0"
           id="path2154"
           style="fill:#424242;fill-opacity:1;fill-rule:evenodd;stroke:none"
           d="m 0,0 h 9.695 c 1.482,0 2.695,-1.214 2.695,-2.694 v -10.75 c 0,-1.482 -1.213,-2.697 -2.695,-2.697 H 0 c -1.482,0 -2.694,1.215 -2.694,2.697 v 10.75 C -2.694,-1.214 -1.482,0 0,0" /></g><g
         transform="translate(255.5732,569.8545)"
         id="g2156"><path
           inkscape:connector-curvature="0"
           id="path2158"
           style="fill:#424242;fill-opacity:1;fill-rule:evenodd;stroke:none"
           d="m 0,0 h 19.945 c 1.587,0 2.885,-1.297 2.885,-2.881 v -10.367 c 0,-1.588 -1.298,-2.885 -2.885,-2.885 H 0 c -1.589,0 -2.884,1.297 -2.884,2.885 V -2.881 C -2.884,-1.297 -1.589,0 0,0" /></g><g
         transform="translate(255.5732,550.9292)"
         id="g2160"><path
           inkscape:connector-curvature="0"
           id="path2162"
           style="fill:#424242;fill-opacity:1;fill-rule:evenodd;stroke:none"
           d="m 0,0 h 23.717 c 1.585,0 2.882,-1.293 2.882,-2.881 v -10.371 c 0,-1.581 -1.297,-2.879 -2.882,-2.879 H 0 c -1.586,0 -2.884,1.298 -2.884,2.879 V -2.881 C -2.884,-1.293 -1.586,0 0,0" /></g><g
         transform="translate(255.5732,532.0073)"
         id="g2164"><path
           inkscape:connector-curvature="0"
           id="path2166"
           style="fill:#424242;fill-opacity:1;fill-rule:evenodd;stroke:none"
           d="m 0,0 h 34.002 c 1.586,0 2.882,-1.297 2.882,-2.878 v -10.373 c 0,-1.584 -1.296,-2.881 -2.882,-2.881 H 0 c -1.589,0 -2.884,1.297 -2.884,2.881 V -2.878 C -2.884,-1.297 -1.589,0 0,0" /></g><g
         transform="translate(255.5732,513.0845)"
         id="g2168"><path
           inkscape:connector-curvature="0"
           id="path2170"
           style="fill:#424242;fill-opacity:1;fill-rule:evenodd;stroke:none"
           d="m 0,0 h 14.118 c 1.582,0 2.883,-1.295 2.883,-2.883 v -10.369 c 0,-1.585 -1.301,-2.878 -2.883,-2.878 H 0 c -1.589,0 -2.884,1.293 -2.884,2.878 V -2.883 C -2.884,-1.295 -1.589,0 0,0" /></g><g
         transform="translate(283.6304,569.8545)"
         id="g2172"><path
           inkscape:connector-curvature="0"
           id="path2174"
           style="fill:#424242;fill-opacity:1;fill-rule:evenodd;stroke:none"
           d="m 0,0 h 10.191 c 1.559,0 2.832,-1.273 2.832,-2.829 v -10.47 c 0,-1.559 -1.273,-2.834 -2.832,-2.834 H 0 c -1.556,0 -2.83,1.275 -2.83,2.834 v 10.47 C -2.83,-1.273 -1.556,0 0,0" /></g><g
         transform="translate(303.1978,569.8545)"
         id="g2176"><path
           inkscape:connector-curvature="0"
           id="path2178"
           style="fill:#424242;fill-opacity:1;fill-rule:evenodd;stroke:none"
           d="m 0,0 h 10.189 c 1.556,0 2.833,-1.273 2.833,-2.829 v -10.47 c 0,-1.559 -1.277,-2.834 -2.833,-2.834 H 0 c -1.556,0 -2.832,1.275 -2.832,2.834 v 10.47 C -2.832,-1.273 -1.556,0 0,0" /></g><g
         transform="translate(322.7617,569.8545)"
         id="g2180"><path
           inkscape:connector-curvature="0"
           id="path2182"
           style="fill:#424242;fill-opacity:1;fill-rule:evenodd;stroke:none"
           d="m 0,0 h 10.19 c 1.559,0 2.832,-1.273 2.832,-2.829 v -10.47 c 0,-1.559 -1.273,-2.834 -2.832,-2.834 H 0 c -1.558,0 -2.832,1.275 -2.832,2.834 v 10.47 C -2.832,-1.273 -1.558,0 0,0" /></g><g
         transform="translate(342.3267,569.8545)"
         id="g2184"><path
           inkscape:connector-curvature="0"
           id="path2186"
           style="fill:#424242;fill-opacity:1;fill-rule:evenodd;stroke:none"
           d="m 0,0 h 10.189 c 1.557,0 2.832,-1.273 2.832,-2.829 v -10.47 c 0,-1.559 -1.275,-2.834 -2.832,-2.834 H 0 c -1.559,0 -2.832,1.275 -2.832,2.834 v 10.47 C -2.832,-1.273 -1.559,0 0,0" /></g><g
         transform="translate(361.8901,569.8545)"
         id="g2188"><path
           inkscape:connector-curvature="0"
           id="path2190"
           style="fill:#424242;fill-opacity:1;fill-rule:evenodd;stroke:none"
           d="m 0,0 h 10.189 c 1.559,0 2.833,-1.273 2.833,-2.829 v -10.47 c 0,-1.559 -1.274,-2.834 -2.833,-2.834 H 0 c -1.558,0 -2.831,1.275 -2.831,2.834 v 10.47 C -2.831,-1.273 -1.558,0 0,0" /></g><g
         transform="translate(381.457,569.8545)"
         id="g2192"><path
           inkscape:connector-curvature="0"
           id="path2194"
           style="fill:#424242;fill-opacity:1;fill-rule:evenodd;stroke:none"
           d="m 0,0 h 10.188 c 1.559,0 2.834,-1.273 2.834,-2.829 v -10.47 c 0,-1.559 -1.275,-2.834 -2.834,-2.834 H 0 c -1.563,0 -2.835,1.275 -2.835,2.834 v 10.47 C -2.835,-1.273 -1.563,0 0,0" /></g><g
         transform="translate(401.019,569.8545)"
         id="g2196"><path
           inkscape:connector-curvature="0"
           id="path2198"
           style="fill:#424242;fill-opacity:1;fill-rule:evenodd;stroke:none"
           d="m 0,0 h 10.19 c 1.558,0 2.831,-1.273 2.831,-2.828 v -10.471 c 0,-1.559 -1.273,-2.833 -2.831,-2.833 L 0,-16.133 c -1.556,0 -2.832,1.275 -2.832,2.834 v 10.47 C -2.832,-1.273 -1.556,0 0,0" /></g><g
         transform="translate(420.5835,569.8545)"
         id="g2200"><path
           inkscape:connector-curvature="0"
           id="path2202"
           style="fill:#424242;fill-opacity:1;fill-rule:evenodd;stroke:none"
           d="m 0,0 h 10.188 c 1.561,0 2.833,-1.273 2.833,-2.828 v -10.471 c 0,-1.559 -1.272,-2.833 -2.833,-2.833 H 0 c -1.562,0 -2.834,1.274 -2.834,2.833 V -2.828 C -2.834,-1.273 -1.562,0 0,0" /></g><g
         transform="translate(440.147,569.8545)"
         id="g2204"><path
           inkscape:connector-curvature="0"
           id="path2206"
           style="fill:#424242;fill-opacity:1;fill-rule:evenodd;stroke:none"
           d="m 0,0 h 10.192 c 1.553,0 2.832,-1.273 2.832,-2.828 v -10.471 c 0,-1.559 -1.279,-2.833 -2.832,-2.833 H 0 c -1.558,0 -2.83,1.274 -2.83,2.833 V -2.828 C -2.83,-1.273 -1.558,0 0,0" /></g><g
         transform="translate(459.7124,569.8545)"
         id="g2208"><path
           inkscape:connector-curvature="0"
           id="path2210"
           style="fill:#424242;fill-opacity:1;fill-rule:evenodd;stroke:none"
           d="m 0,0 h 10.192 c 1.554,0 2.829,-1.273 2.829,-2.828 v -10.471 c 0,-1.559 -1.275,-2.833 -2.829,-2.833 H 0 c -1.557,0 -2.829,1.274 -2.829,2.833 V -2.828 C -2.829,-1.273 -1.557,0 0,0" /></g><g
         transform="translate(479.2729,569.8545)"
         id="g2212"><path
           inkscape:connector-curvature="0"
           id="path2214"
           style="fill:#424242;fill-opacity:1;fill-rule:evenodd;stroke:none"
           d="m 0,0 h 10.193 c 1.556,0 2.832,-1.273 2.832,-2.828 v -10.471 c 0,-1.559 -1.276,-2.833 -2.832,-2.833 H 0 c -1.55,0 -2.828,1.274 -2.828,2.833 V -2.828 C -2.828,-1.273 -1.55,0 0,0" /></g><g
         transform="translate(498.8384,569.8545)"
         id="g2216"><path
           inkscape:connector-curvature="0"
           id="path2218"
           style="fill:#424242;fill-opacity:1;fill-rule:evenodd;stroke:none"
           d="m 0,0 h 10.194 c 1.558,0 2.832,-1.273 2.832,-2.828 v -10.471 c 0,-1.559 -1.274,-2.833 -2.832,-2.833 H 0 c -1.556,0 -2.83,1.274 -2.83,2.833 V -2.828 C -2.83,-1.273 -1.556,0 0,0" /></g><g
         transform="translate(289.0752,550.9292)"
         id="g2220"><path
           inkscape:connector-curvature="0"
           id="path2222"
           style="fill:#424242;fill-opacity:1;fill-rule:evenodd;stroke:none"
           d="m 0,0 h 10.19 c 1.559,0 2.832,-1.27 2.832,-2.832 V -13.3 c 0,-1.556 -1.273,-2.831 -2.832,-2.831 H 0 c -1.558,0 -2.831,1.275 -2.831,2.831 V -2.832 C -2.831,-1.27 -1.558,0 0,0" /></g><g
         transform="translate(308.6392,550.9292)"
         id="g2224"><path
           inkscape:connector-curvature="0"
           id="path2226"
           style="fill:#424242;fill-opacity:1;fill-rule:evenodd;stroke:none"
           d="m 0,0 h 10.192 c 1.556,0 2.829,-1.27 2.829,-2.832 V -13.3 c 0,-1.556 -1.273,-2.831 -2.829,-2.831 H 0 c -1.559,0 -2.831,1.275 -2.831,2.831 V -2.832 C -2.831,-1.27 -1.559,0 0,0" /></g><g
         transform="translate(328.2041,550.9292)"
         id="g2228"><path
           inkscape:connector-curvature="0"
           id="path2230"
           style="fill:#424242;fill-opacity:1;fill-rule:evenodd;stroke:none"
           d="m 0,0 h 10.19 c 1.557,0 2.834,-1.27 2.834,-2.832 V -13.3 c 0,-1.556 -1.277,-2.831 -2.834,-2.831 H 0 c -1.557,0 -2.831,1.275 -2.831,2.831 V -2.832 C -2.831,-1.27 -1.557,0 0,0" /></g><g
         transform="translate(347.7676,550.9292)"
         id="g2232"><path
           inkscape:connector-curvature="0"
           id="path2234"
           style="fill:#424242;fill-opacity:1;fill-rule:evenodd;stroke:none"
           d="m 0,0 h 10.191 c 1.558,0 2.83,-1.27 2.83,-2.832 V -13.3 c 0,-1.556 -1.272,-2.831 -2.83,-2.831 H 0 c -1.555,0 -2.831,1.275 -2.831,2.831 V -2.832 C -2.831,-1.27 -1.555,0 0,0" /></g><g
         transform="translate(367.3345,550.9292)"
         id="g2236"><path
           inkscape:connector-curvature="0"
           id="path2238"
           style="fill:#424242;fill-opacity:1;fill-rule:evenodd;stroke:none"
           d="m 0,0 h 10.189 c 1.558,0 2.833,-1.27 2.833,-2.832 V -13.3 c 0,-1.556 -1.275,-2.831 -2.833,-2.831 H 0 c -1.559,0 -2.83,1.275 -2.83,2.831 V -2.832 C -2.83,-1.27 -1.559,0 0,0" /></g><g
         transform="translate(386.8975,550.9292)"
         id="g2240"><path
           inkscape:connector-curvature="0"
           id="path2242"
           style="fill:#424242;fill-opacity:1;fill-rule:evenodd;stroke:none"
           d="m 0,0 h 10.19 c 1.561,0 2.831,-1.27 2.831,-2.832 V -13.3 c 0,-1.556 -1.27,-2.831 -2.831,-2.831 H 0 c -1.557,0 -2.83,1.275 -2.83,2.831 V -2.832 C -2.83,-1.27 -1.557,0 0,0" /></g><g
         transform="translate(406.4624,550.9292)"
         id="g2244"><path
           inkscape:connector-curvature="0"
           id="path2246"
           style="fill:#424242;fill-opacity:1;fill-rule:evenodd;stroke:none"
           d="m 0,0 h 10.188 c 1.559,0 2.832,-1.269 2.832,-2.83 v -10.469 c 0,-1.557 -1.273,-2.831 -2.832,-2.831 L 0,-16.131 c -1.56,0 -2.833,1.275 -2.833,2.831 V -2.832 C -2.833,-1.27 -1.56,0 0,0" /></g><g
         transform="translate(426.0259,550.9292)"
         id="g2248"><path
           inkscape:connector-curvature="0"
           id="path2250"
           style="fill:#424242;fill-opacity:1;fill-rule:evenodd;stroke:none"
           d="m 0,0 h 10.189 c 1.556,0 2.832,-1.269 2.832,-2.83 v -10.469 c 0,-1.557 -1.276,-2.831 -2.832,-2.831 H 0 c -1.558,0 -2.835,1.274 -2.835,2.831 V -2.83 C -2.835,-1.269 -1.558,0 0,0" /></g><g
         transform="translate(445.5913,550.9292)"
         id="g2252"><path
           inkscape:connector-curvature="0"
           id="path2254"
           style="fill:#424242;fill-opacity:1;fill-rule:evenodd;stroke:none"
           d="m 0,0 h 10.19 c 1.557,0 2.831,-1.269 2.831,-2.83 v -10.469 c 0,-1.557 -1.274,-2.831 -2.831,-2.831 H 0 c -1.558,0 -2.834,1.274 -2.834,2.831 V -2.83 C -2.834,-1.269 -1.558,0 0,0" /></g><g
         transform="translate(465.1528,550.9292)"
         id="g2256"><path
           inkscape:connector-curvature="0"
           id="path2258"
           style="fill:#424242;fill-opacity:1;fill-rule:evenodd;stroke:none"
           d="m 0,0 h 10.19 c 1.562,0 2.834,-1.269 2.834,-2.83 v -10.469 c 0,-1.557 -1.272,-2.831 -2.834,-2.831 H 0 c -1.554,0 -2.832,1.274 -2.832,2.831 V -2.83 C -2.832,-1.269 -1.554,0 0,0" /></g><g
         transform="translate(484.7192,550.9292)"
         id="g2260"><path
           inkscape:connector-curvature="0"
           id="path2262"
           style="fill:#424242;fill-opacity:1;fill-rule:evenodd;stroke:none"
           d="m 0,0 h 10.186 c 1.565,0 2.839,-1.269 2.839,-2.83 v -10.469 c 0,-1.557 -1.274,-2.831 -2.839,-2.831 H 0 c -1.558,0 -2.833,1.274 -2.833,2.831 V -2.83 C -2.833,-1.269 -1.558,0 0,0" /></g><g
         transform="translate(299.3203,532.0073)"
         id="g2264"><path
           inkscape:connector-curvature="0"
           id="path2266"
           style="fill:#424242;fill-opacity:1;fill-rule:evenodd;stroke:none"
           d="m 0,0 h 10.188 c 1.557,0 2.833,-1.274 2.833,-2.835 v -10.467 c 0,-1.554 -1.276,-2.83 -2.833,-2.83 H 0 c -1.559,0 -2.832,1.276 -2.832,2.83 V -2.835 C -2.832,-1.274 -1.559,0 0,0" /></g><g
         transform="translate(318.8823,532.0073)"
         id="g2268"><path
           inkscape:connector-curvature="0"
           id="path2270"
           style="fill:#424242;fill-opacity:1;fill-rule:evenodd;stroke:none"
           d="m 0,0 h 10.189 c 1.559,0 2.834,-1.274 2.834,-2.835 v -10.467 c 0,-1.554 -1.275,-2.83 -2.834,-2.83 H 0 c -1.559,0 -2.831,1.276 -2.831,2.83 V -2.835 C -2.831,-1.274 -1.559,0 0,0" /></g><g
         transform="translate(338.4468,532.0073)"
         id="g2272"><path
           inkscape:connector-curvature="0"
           id="path2274"
           style="fill:#424242;fill-opacity:1;fill-rule:evenodd;stroke:none"
           d="m 0,0 h 10.189 c 1.561,0 2.832,-1.274 2.832,-2.835 v -10.467 c 0,-1.554 -1.271,-2.83 -2.832,-2.83 H 0 c -1.555,0 -2.832,1.276 -2.832,2.83 V -2.835 C -2.832,-1.274 -1.555,0 0,0" /></g><g
         transform="translate(358.0107,532.0073)"
         id="g2276"><path
           inkscape:connector-curvature="0"
           id="path2278"
           style="fill:#424242;fill-opacity:1;fill-rule:evenodd;stroke:none"
           d="m 0,0 h 10.192 c 1.558,0 2.832,-1.274 2.832,-2.835 v -10.467 c 0,-1.554 -1.274,-2.83 -2.832,-2.83 H 0 c -1.556,0 -2.829,1.276 -2.829,2.83 V -2.835 C -2.829,-1.274 -1.556,0 0,0" /></g><g
         transform="translate(377.5757,532.0073)"
         id="g2280"><path
           inkscape:connector-curvature="0"
           id="path2282"
           style="fill:#424242;fill-opacity:1;fill-rule:evenodd;stroke:none"
           d="m 0,0 h 10.192 c 1.556,0 2.832,-1.274 2.832,-2.835 v -10.467 c 0,-1.554 -1.276,-2.83 -2.832,-2.83 H 0 c -1.559,0 -2.834,1.276 -2.834,2.83 V -2.835 C -2.834,-1.274 -1.559,0 0,0" /></g><g
         transform="translate(397.1396,532.0073)"
         id="g2284"><path
           inkscape:connector-curvature="0"
           id="path2286"
           style="fill:#424242;fill-opacity:1;fill-rule:evenodd;stroke:none"
           d="m 0,0 h 10.189 c 1.561,0 2.834,-1.272 2.834,-2.834 V -13.3 c 0,-1.555 -1.273,-2.832 -2.834,-2.832 H 0 c -1.556,0 -2.829,1.276 -2.829,2.83 V -2.835 C -2.829,-1.274 -1.556,0 0,0" /></g><g
         transform="translate(416.7046,532.0083)"
         id="g2288"><path
           inkscape:connector-curvature="0"
           id="path2290"
           style="fill:#424242;fill-opacity:1;fill-rule:evenodd;stroke:none"
           d="m 0,0 h 10.19 c 1.56,0 2.832,-1.273 2.832,-2.835 v -10.466 c 0,-1.555 -1.272,-2.831 -2.832,-2.831 H 0 c -1.558,0 -2.83,1.276 -2.83,2.831 V -2.835 C -2.83,-1.273 -1.558,0 0,0" /></g><g
         transform="translate(436.2661,532.0083)"
         id="g2292"><path
           inkscape:connector-curvature="0"
           id="path2294"
           style="fill:#424242;fill-opacity:1;fill-rule:evenodd;stroke:none"
           d="m 0,0 h 10.194 c 1.554,0 2.828,-1.273 2.828,-2.835 v -10.466 c 0,-1.555 -1.274,-2.831 -2.828,-2.831 H 0 c -1.555,0 -2.828,1.276 -2.828,2.831 V -2.835 C -2.828,-1.273 -1.555,0 0,0" /></g><g
         transform="translate(455.8345,532.0083)"
         id="g2296"><path
           inkscape:connector-curvature="0"
           id="path2298"
           style="fill:#424242;fill-opacity:1;fill-rule:evenodd;stroke:none"
           d="m 0,0 h 10.188 c 1.557,0 2.833,-1.273 2.833,-2.835 v -10.466 c 0,-1.555 -1.276,-2.831 -2.833,-2.831 H 0 c -1.56,0 -2.832,1.276 -2.832,2.831 V -2.835 C -2.832,-1.273 -1.56,0 0,0" /></g><g
         transform="translate(475.3979,532.0083)"
         id="g2300"><path
           inkscape:connector-curvature="0"
           id="path2302"
           style="fill:#424242;fill-opacity:1;fill-rule:evenodd;stroke:none"
           d="m 0,0 h 10.19 c 1.558,0 2.832,-1.273 2.832,-2.835 v -10.466 c 0,-1.555 -1.274,-2.831 -2.832,-2.831 H 0 c -1.556,0 -2.83,1.276 -2.83,2.831 V -2.835 C -2.83,-1.273 -1.556,0 0,0" /></g><g
         transform="translate(495.0151,532.0083)"
         id="g2304"><path
           inkscape:connector-curvature="0"
           id="path2306"
           style="fill:#424242;fill-opacity:1;fill-rule:evenodd;stroke:none"
           d="m 0,0 h 18.424 c 1.583,0 2.881,-1.297 2.881,-2.878 v -10.373 c 0,-1.584 -1.298,-2.881 -2.881,-2.881 H 0 c -1.589,0 -2.886,1.297 -2.886,2.881 V -2.878 C -2.886,-1.297 -1.589,0 0,0" /></g><g
         transform="translate(279.437,513.0845)"
         id="g2308"><path
           inkscape:connector-curvature="0"
           id="path2310"
           style="fill:#424242;fill-opacity:1;fill-rule:evenodd;stroke:none"
           d="m 0,0 h 10.186 c 1.559,0 2.834,-1.273 2.834,-2.835 v -10.468 c 0,-1.558 -1.275,-2.827 -2.834,-2.827 L 0,-16.13 c -1.559,0 -2.834,1.269 -2.834,2.827 V -2.835 C -2.834,-1.273 -1.559,0 0,0" /></g><g
         transform="translate(298.999,513.0845)"
         id="g2312"><path
           inkscape:connector-curvature="0"
           id="path2314"
           style="fill:#424242;fill-opacity:1;fill-rule:evenodd;stroke:none"
           d="m 0,0 h 10.191 c 1.558,0 2.833,-1.273 2.833,-2.835 v -10.468 c 0,-1.558 -1.275,-2.827 -2.833,-2.827 L 0,-16.13 c -1.555,0 -2.832,1.269 -2.832,2.827 V -2.835 C -2.832,-1.273 -1.555,0 0,0" /></g><g
         transform="translate(318.5635,513.0845)"
         id="g2316"><path
           inkscape:connector-curvature="0"
           id="path2318"
           style="fill:#424242;fill-opacity:1;fill-rule:evenodd;stroke:none"
           d="m 0,0 h 10.19 c 1.559,0 2.834,-1.273 2.834,-2.835 v -10.468 c 0,-1.558 -1.275,-2.827 -2.834,-2.827 H 0 c -1.555,0 -2.831,1.269 -2.831,2.827 V -2.835 C -2.831,-1.273 -1.555,0 0,0" /></g><g
         transform="translate(338.1265,513.0845)"
         id="g2320"><path
           inkscape:connector-curvature="0"
           id="path2322"
           style="fill:#424242;fill-opacity:1;fill-rule:evenodd;stroke:none"
           d="m 0,0 h 88.275 c 1.558,0 2.836,-1.273 2.836,-2.835 v -10.468 c 0,-1.558 -1.278,-2.827 -2.836,-2.827 L 0,-16.13 c -1.553,0 -2.831,1.269 -2.831,2.827 V -2.835 C -2.831,-1.273 -1.553,0 0,0" /></g><g
         transform="translate(435.9526,513.0845)"
         id="g2324"><path
           inkscape:connector-curvature="0"
           id="path2326"
           style="fill:#424242;fill-opacity:1;fill-rule:evenodd;stroke:none"
           d="m 0,0 h 10.188 c 1.554,0 2.834,-1.273 2.834,-2.834 v -10.467 c 0,-1.559 -1.28,-2.828 -2.834,-2.828 H 0 c -1.562,0 -2.836,1.269 -2.836,2.828 V -2.834 C -2.836,-1.273 -1.562,0 0,0" /></g><g
         transform="translate(455.5122,513.0845)"
         id="g2328"><path
           inkscape:connector-curvature="0"
           id="path2330"
           style="fill:#424242;fill-opacity:1;fill-rule:evenodd;stroke:none"
           d="m 0,0 h 10.196 c 1.554,0 2.828,-1.273 2.828,-2.834 v -10.467 c 0,-1.559 -1.274,-2.828 -2.828,-2.828 H 0 c -1.555,0 -2.83,1.269 -2.83,2.828 V -2.834 C -2.83,-1.273 -1.555,0 0,0" /></g><g
         transform="translate(475.1294,513.0845)"
         id="g2332"><path
           inkscape:connector-curvature="0"
           id="path2334"
           style="fill:#424242;fill-opacity:1;fill-rule:evenodd;stroke:none"
           d="m 0,0 h 18.424 c 1.582,0 2.879,-1.293 2.879,-2.882 V -13.25 c 0,-1.587 -1.297,-2.879 -2.879,-2.879 H 0 c -1.586,0 -2.881,1.292 -2.881,2.879 V -2.882 C -2.881,-1.293 -1.586,0 0,0" /></g><g
         transform="translate(503.9302,513.0845)"
         id="g2336"><path
           inkscape:connector-curvature="0"
           id="path2338"
           style="fill:#424242;fill-opacity:1;fill-rule:evenodd;stroke:none"
           d="m 0,0 h 9.695 c 1.479,0 2.695,-1.209 2.695,-2.692 v -10.746 c 0,-1.479 -1.216,-2.691 -2.695,-2.691 H 0 c -1.482,0 -2.697,1.212 -2.697,2.691 V -2.692 C -2.697,-1.209 -1.482,0 0,0" /></g><g
         transform="translate(356.9136,483.1934)"
         id="g2340"><path
           inkscape:connector-curvature="0"
           id="path2342"
           style="fill:#d4d4d4;fill-opacity:1;fill-rule:evenodd;stroke:none"
           d="m 0,0 89.885,0.001 c 1.37,0 2.49,-1.118 2.49,-2.488 v -43.221 c 0,-1.368 -1.12,-2.492 -2.49,-2.492 L 0,-48.2 c -1.368,0 -2.491,1.123 -2.491,2.492 v 43.22 C -2.491,-1.118 -1.368,0 0,0" /></g><g
         transform="translate(354.9395,431.7607)"
         id="g2344"><path
           inkscape:connector-curvature="0"
           id="path2346"
           style="fill:#d4d4d4;fill-opacity:1;fill-rule:evenodd;stroke:none"
           d="m 0,0 h 44.703 c 0.286,0 0.518,-0.229 0.518,-0.514 v -8.975 c 0,-0.284 -0.232,-0.518 -0.518,-0.518 H 0 c -0.284,0 -0.517,0.234 -0.517,0.518 v 8.975 C -0.517,-0.229 -0.284,0 0,0" /></g><g
         transform="translate(404.0698,431.7607)"
         id="g2348"><path
           inkscape:connector-curvature="0"
           id="path2350"
           style="fill:#d4d4d4;fill-opacity:1;fill-rule:evenodd;stroke:none"
           d="m 0,0 h 44.703 c 0.285,0 0.516,-0.228 0.516,-0.514 v -8.974 c 0,-0.284 -0.231,-0.519 -0.516,-0.519 H 0 c -0.287,0 -0.518,0.234 -0.518,0.518 v 8.975 C -0.518,-0.229 -0.287,0 0,0" /></g><g
         transform="translate(209.7051,750.207)"
         id="g2352"><path
           inkscape:connector-curvature="0"
           id="path2354"
           style="fill:#424242;fill-opacity:1;fill-rule:evenodd;stroke:none"
           d="m 0,0 h 386.354 c 9.29,0 12.114,-5.031 8.308,-11.968 l -32.326,-99.288 H 23.784 L -5.018,-18 C -11.485,-6.144 -10.233,0 0,0" /></g><g
         transform="translate(584.5884,732.2773)"
         id="g2356"><path
           inkscape:connector-curvature="0"
           id="path2358"
           style="fill:#00b6bf;fill-opacity:1;fill-rule:evenodd;stroke:none"
           d="M 0,0 -23.508,-79.456 H -339.871 L -363.621,0 Z" /></g><g
         transform="translate(258.4473,645.7866)"
         id="g2360"><path
           inkscape:connector-curvature="0"
           id="path2362"
           style="fill:#d4d4d4;fill-opacity:1;fill-rule:evenodd;stroke:none"
           d="m 0,0 h 13.466 c 0.854,0 1.555,-0.819 1.555,-1.81 v -18.454 c 0,-0.993 -0.701,-1.807 -1.555,-1.807 H 0 c -0.855,0 -1.558,0.814 -1.558,1.807 V -1.81 C -1.558,-0.819 -0.855,0 0,0" /></g><g
         transform="translate(534.5044,645.7866)"
         id="g2364"><path
           inkscape:connector-curvature="0"
           id="path2366"
           style="fill:#d4d4d4;fill-opacity:1;fill-rule:evenodd;stroke:none"
           d="m 0,0 h 13.463 c 0.855,0 1.558,-0.819 1.558,-1.81 v -18.454 c 0,-0.993 -0.703,-1.807 -1.558,-1.807 H 0 c -0.857,0 -1.558,0.814 -1.558,1.807 V -1.81 C -1.558,-0.819 -0.857,0 0,0" /></g></g></g></svg>