<?xml version="1.0" encoding="UTF-8" standalone="no"?>
<!-- Created with Inkscape (http://www.inkscape.org/) -->

<svg
   xmlns:dc="http://purl.org/dc/elements/1.1/"
   xmlns:cc="http://creativecommons.org/ns#"
   xmlns:rdf="http://www.w3.org/1999/02/22-rdf-syntax-ns#"
   xmlns:svg="http://www.w3.org/2000/svg"
   xmlns="http://www.w3.org/2000/svg"
   xmlns:sodipodi="http://sodipodi.sourceforge.net/DTD/sodipodi-0.dtd"
   xmlns:inkscape="http://www.inkscape.org/namespaces/inkscape"
   version="1.1"
   id="svg4049"
   xml:space="preserve"
   width="80"
   height="130"
   viewBox="0 0 79.999996 129.99999"
   sodipodi:docname="menu-contacts.svg"
   inkscape:version="0.92.1 r"><metadata
     id="metadata4055"><rdf:RDF><cc:Work
         rdf:about=""><dc:format>image/svg+xml</dc:format><dc:type
           rdf:resource="http://purl.org/dc/dcmitype/StillImage" /><dc:title></dc:title></cc:Work></rdf:RDF></metadata><defs
     id="defs4053" /><sodipodi:namedview
     pagecolor="#ffffff"
     bordercolor="#666666"
     borderopacity="1"
     objecttolerance="10"
     gridtolerance="10"
     guidetolerance="10"
     inkscape:pageopacity="0"
     inkscape:pageshadow="2"
     inkscape:window-width="1366"
     inkscape:window-height="706"
     id="namedview4051"
     showgrid="false"
     inkscape:zoom="2.5031578"
     inkscape:cx="73.366443"
     inkscape:cy="74.471202"
     inkscape:window-x="0"
     inkscape:window-y="25"
     inkscape:window-maximized="1"
     inkscape:current-layer="g4057" /><g
     id="g4057"
     inkscape:groupmode="layer"
     inkscape:label="06"
     transform="matrix(1.3333333,0,0,-1.3333333,0,129.99995)"><g
       id="g7634"
       transform="matrix(0.67721122,-0.36895409,0.36895409,0.67721122,-296.9113,-377.55819)"><g
         transform="translate(107.0781,621.6187)"
         id="g6693"><path
           inkscape:connector-curvature="0"
           id="path6695"
           style="fill:#f2f2f2;fill-opacity:1;fill-rule:nonzero;stroke:none"
           d="M 0,0 57.35,31.262 2.492,131.897 -54.857,100.637 Z M 60.342,28.013 1.11,-4.275 c -1.555,-0.849 -3.516,-0.262 -4.372,1.307 l -55.856,102.47 c -0.856,1.568 -0.287,3.534 1.269,4.382 l 59.231,32.288 c 1.556,0.848 3.516,0.262 4.372,-1.307 L 61.611,32.396 c 0.854,-1.57 0.285,-3.535 -1.269,-4.383" /></g><g
         transform="translate(166.8086,652.9893)"
         id="g6697"><path
           inkscape:connector-curvature="0"
           id="path6699"
           style="fill:#424242;fill-opacity:1;fill-rule:nonzero;stroke:none"
           d="m 0,0 c 0.29,-0.533 0.105,-1.194 -0.414,-1.476 l -59.232,-32.289 c -0.52,-0.284 -1.175,-0.08 -1.465,0.452 l -55.858,102.469 c -0.29,0.532 -0.104,1.194 0.415,1.478 l 59.231,32.287 c 0.52,0.283 1.176,0.08 1.466,-0.452 z" /></g><g
         transform="translate(151.4712,666.4556)"
         id="g6701"><path
           inkscape:connector-curvature="0"
           id="path6703"
           style="fill:#00b6bf;fill-opacity:1;fill-rule:nonzero;stroke:none"
           d="m 0,0 c 0.283,-0.52 0.092,-1.169 -0.428,-1.453 l -46.901,-25.566 c -0.521,-0.284 -1.17,-0.091 -1.452,0.429 l -41.416,75.973 c -0.283,0.52 -0.092,1.171 0.428,1.455 l 46.901,25.565 c 0.52,0.284 1.17,0.092 1.452,-0.427 z" /></g><g
         transform="translate(140.667,646.0088)"
         id="g6705"><path
           inkscape:connector-curvature="0"
           id="path6707"
           style="fill:#5b5b5b;fill-opacity:1;fill-rule:nonzero;stroke:none"
           d="M 0,0 C 0.283,-0.519 0.092,-1.169 -0.427,-1.453 L -13.486,-8.57 c -0.518,-0.283 -1.17,-0.093 -1.452,0.427 l -2.169,3.977 c -0.284,0.521 -0.091,1.172 0.427,1.455 l 13.059,7.117 c 0.519,0.284 1.17,0.093 1.452,-0.427 z" /></g><g
         transform="translate(90.9204,739.4453)"
         id="g6709"><path
           inkscape:connector-curvature="0"
           id="path6711"
           style="fill:#5b5b5b;fill-opacity:1;fill-rule:nonzero;stroke:none"
           d="m 0,0 c 0.283,-0.519 0.091,-1.168 -0.429,-1.453 l -14.885,-8.115 c -0.52,-0.283 -1.17,-0.091 -1.454,0.428 l -0.392,0.72 c -0.283,0.519 -0.091,1.17 0.427,1.454 l 14.887,8.114 c 0.519,0.283 1.169,0.091 1.453,-0.427 z" /></g></g></g></svg>