<?xml version="1.0" encoding="UTF-8" standalone="no"?>
<!-- Created with Inkscape (http://www.inkscape.org/) -->

<svg
   xmlns:dc="http://purl.org/dc/elements/1.1/"
   xmlns:cc="http://creativecommons.org/ns#"
   xmlns:rdf="http://www.w3.org/1999/02/22-rdf-syntax-ns#"
   xmlns:svg="http://www.w3.org/2000/svg"
   xmlns="http://www.w3.org/2000/svg"
   xmlns:sodipodi="http://sodipodi.sourceforge.net/DTD/sodipodi-0.dtd"
   xmlns:inkscape="http://www.inkscape.org/namespaces/inkscape"
   version="1.1"
   id="svg2"
   xml:space="preserve"
   width="155"
   height="150"
   viewBox="0 0 154.99999 149.99999"
   sodipodi:docname="menu-portfolio.svg"
   inkscape:version="0.92.1 r"><metadata
     id="metadata8"><rdf:RDF><cc:Work
         rdf:about=""><dc:format>image/svg+xml</dc:format><dc:type
           rdf:resource="http://purl.org/dc/dcmitype/StillImage" /><dc:title></dc:title></cc:Work></rdf:RDF></metadata><defs
     id="defs6"><clipPath
       clipPathUnits="userSpaceOnUse"
       id="clipPath1662"><path
         d="M 162.753,319.918 58.478,298.931 98.972,97.736 203.247,118.722 c 4.225,0.85 6.96,4.964 6.11,9.189 v 0 l -37.414,185.896 c -0.746,3.706 -4.002,6.265 -7.641,6.266 v 0 c -0.511,0 -1.029,-0.051 -1.549,-0.155"
         id="path1660"
         inkscape:connector-curvature="0" /></clipPath><clipPath
       clipPathUnits="userSpaceOnUse"
       id="clipPath1670"><path
         d="M 55.939,322.141 H 180.161 V 279.018 H 55.939 Z"
         id="path1668"
         inkscape:connector-curvature="0" /></clipPath><clipPath
       clipPathUnits="userSpaceOnUse"
       id="clipPath1686"><path
         d="M 59.0576,306.643 H 183.28 V 263.52 H 59.0576 Z"
         id="path1684"
         inkscape:connector-curvature="0" /></clipPath><clipPath
       clipPathUnits="userSpaceOnUse"
       id="clipPath1702"><path
         d="M 62.1768,291.146 H 186.399 V 248.023 H 62.1768 Z"
         id="path1700"
         inkscape:connector-curvature="0" /></clipPath><clipPath
       clipPathUnits="userSpaceOnUse"
       id="clipPath1718"><path
         d="M 65.2964,275.648 H 189.518 V 232.525 H 65.2964 Z"
         id="path1716"
         inkscape:connector-curvature="0" /></clipPath><clipPath
       clipPathUnits="userSpaceOnUse"
       id="clipPath1734"><path
         d="M 68.4146,260.152 H 192.637 V 217.028 H 68.4146 Z"
         id="path1732"
         inkscape:connector-curvature="0" /></clipPath><clipPath
       clipPathUnits="userSpaceOnUse"
       id="clipPath1750"><path
         d="M 71.5337,244.654 H 195.756 V 201.531 H 71.5337 Z"
         id="path1748"
         inkscape:connector-curvature="0" /></clipPath><clipPath
       clipPathUnits="userSpaceOnUse"
       id="clipPath1766"><path
         d="M 74.6528,229.158 H 198.875 V 186.034 H 74.6528 Z"
         id="path1764"
         inkscape:connector-curvature="0" /></clipPath><clipPath
       clipPathUnits="userSpaceOnUse"
       id="clipPath1782"><path
         d="M 77.772,213.661 H 201.994 V 170.537 H 77.772 Z"
         id="path1780"
         inkscape:connector-curvature="0" /></clipPath><clipPath
       clipPathUnits="userSpaceOnUse"
       id="clipPath1798"><path
         d="M 80.8911,198.164 H 205.113 V 155.039 H 80.8911 Z"
         id="path1796"
         inkscape:connector-curvature="0" /></clipPath><clipPath
       clipPathUnits="userSpaceOnUse"
       id="clipPath1814"><path
         d="M 84.0103,182.666 H 208.232 V 139.543 H 84.0103 Z"
         id="path1812"
         inkscape:connector-curvature="0" /></clipPath><clipPath
       clipPathUnits="userSpaceOnUse"
       id="clipPath1830"><path
         d="M 87.1294,167.169 H 211.352 V 124.045 H 87.1294 Z"
         id="path1828"
         inkscape:connector-curvature="0" /></clipPath><clipPath
       clipPathUnits="userSpaceOnUse"
       id="clipPath1846"><path
         d="M 90.248,151.672 H 214.47 V 108.549 H 90.248 Z"
         id="path1844"
         inkscape:connector-curvature="0" /></clipPath><clipPath
       clipPathUnits="userSpaceOnUse"
       id="clipPath1862"><path
         d="M 93.3672,136.174 H 217.589 V 93.0508 H 93.3672 Z"
         id="path1860"
         inkscape:connector-curvature="0" /></clipPath></defs><sodipodi:namedview
     pagecolor="#ffffff"
     bordercolor="#666666"
     borderopacity="1"
     objecttolerance="10"
     gridtolerance="10"
     guidetolerance="10"
     inkscape:pageopacity="0"
     inkscape:pageshadow="2"
     inkscape:window-width="1366"
     inkscape:window-height="706"
     id="namedview4"
     showgrid="false"
     inkscape:zoom="1.7699999"
     inkscape:cx="68.281631"
     inkscape:cy="85.967723"
     inkscape:window-x="0"
     inkscape:window-y="25"
     inkscape:window-maximized="1"
     inkscape:current-layer="g10" /><g
     id="g10"
     inkscape:groupmode="layer"
     inkscape:label="06"
     transform="matrix(1.3333333,0,0,-1.3333333,0,149.99995)"><g
       id="g3693"
       transform="matrix(0.90704369,0,0,0.90704369,0.75174713,0.34703759)"><g
         id="g3208"
         transform="matrix(0.52276827,0,0,0.52276827,-18.058507,-47.402957)"><g
           transform="translate(144.6563,314.8545)"
           id="g3026"><path
             inkscape:connector-curvature="0"
             id="path3024"
             style="fill:#ff6e7a;fill-opacity:1;fill-rule:nonzero;stroke:none"
             d="m 0,0 -0.397,1.972 c -0.79,3.923 -4.61,6.463 -8.533,5.674 L -26.029,4.204 c -3.924,-0.79 -6.464,-4.611 -5.674,-8.534 l 0.396,-1.971 z" /></g><g
           transform="translate(117.3579,309.3604)"
           id="g3030"><path
             inkscape:connector-curvature="0"
             id="path3028"
             style="fill:#f8d900;fill-opacity:1;fill-rule:nonzero;stroke:none"
             d="m 0,0 -0.397,1.971 c -0.79,3.923 -4.609,6.464 -8.532,5.675 l -17.1,-3.442 c -3.924,-0.789 -6.464,-4.61 -5.675,-8.534 l 0.397,-1.972 z" /></g><g
           transform="translate(90.0596,303.8662)"
           id="g3034"><path
             inkscape:connector-curvature="0"
             id="path3032"
             style="fill:#ff6e7a;fill-opacity:1;fill-rule:nonzero;stroke:none"
             d="M 0,0 -0.396,1.972 C -1.187,5.895 -5.007,8.435 -8.93,7.646 L -26.029,4.204 c -3.924,-0.79 -6.464,-4.61 -5.675,-8.533 l 0.397,-1.972 z" /></g><g
           transform="translate(43.1777,295.8525)"
           id="g3038"><path
             inkscape:connector-curvature="0"
             id="path3036"
             style="fill:#f8d900;fill-opacity:1;fill-rule:nonzero;stroke:none"
             d="m 0,0 c -4.225,-0.851 -6.96,-4.965 -6.11,-9.189 l 37.413,-185.897 c 0.852,-4.226 4.966,-6.962 9.191,-6.111 l 15.3,3.08 L 15.3,3.079 Z" /></g><g
           transform="translate(162.7529,319.918)"
           id="g3042"><path
             inkscape:connector-curvature="0"
             id="path3040"
             style="fill:#00b6bf;fill-opacity:1;fill-rule:nonzero;stroke:none"
             d="m 0,0 -104.275,-20.986 40.494,-201.197 104.275,20.987 c 4.225,0.85 6.96,4.965 6.11,9.189 L 9.19,-6.11 C 8.339,-1.885 4.226,0.851 0,0" /></g><g
           id="g3202"><g
             clip-path="url(#clipPath1662)"
             id="g3200"><g
               id="g3054"><g
                 id="g3044" /><g
                 id="g3052"><g
                   style="opacity:0.30000299"
                   id="g3050"
                   clip-path="url(#clipPath1670)"><g
                     id="g3048"
                     transform="translate(179.647,306.0186)"><path
                       inkscape:connector-curvature="0"
                       id="path3046"
                       style="fill:#ffffff;fill-opacity:1;fill-rule:nonzero;stroke:none"
                       d="m 0,0 -18.113,15.56 c -0.542,0.464 -1.239,0.655 -1.909,0.519 -0.669,-0.134 -1.236,-0.58 -1.557,-1.217 L -31.583,-5.133 -48.543,9.434 c -0.543,0.465 -1.238,0.657 -1.908,0.523 -0.669,-0.136 -1.237,-0.581 -1.557,-1.22 l -10.005,-19.996 -16.96,14.568 c -0.542,0.467 -1.237,0.658 -1.907,0.522 -0.67,-0.134 -1.238,-0.58 -1.558,-1.218 l -10.005,-19.995 -16.959,14.568 c -0.543,0.464 -1.239,0.656 -1.908,0.521 h -0.001 c -0.669,-0.135 -1.237,-0.58 -1.557,-1.218 l -10.684,-21.355 c -0.365,-0.729 -0.07,-1.614 0.658,-1.979 0.306,-0.152 0.64,-0.19 0.951,-0.128 0.429,0.087 0.817,0.364 1.028,0.787 l 10.279,20.544 17.426,-14.968 c 0.42,-0.362 0.983,-0.437 1.469,-0.258 0.518,0.022 1.008,0.31 1.256,0.806 l 10.278,20.543 17.427,-14.967 c 0.357,-0.308 0.822,-0.413 1.252,-0.327 0.08,0.016 0.159,0.041 0.236,0.07 0.51,0.028 0.992,0.315 1.236,0.806 l 10.28,20.542 17.424,-14.966 c 0.359,-0.309 0.823,-0.414 1.253,-0.327 0.08,0.016 0.159,0.039 0.236,0.068 0.51,0.03 0.992,0.317 1.237,0.807 l 10.279,20.544 17.426,-14.967 c 0.358,-0.309 0.822,-0.415 1.252,-0.327 0.312,0.061 0.605,0.225 0.827,0.483 C 0.689,-1.461 0.617,-0.53 0,0" /></g></g></g></g><g
               id="g3066"><g
                 id="g3056" /><g
                 id="g3064"><g
                   style="opacity:0.30000299"
                   id="g3062"
                   clip-path="url(#clipPath1686)"><g
                     id="g3060"
                     transform="translate(182.7666,290.5205)"><path
                       inkscape:connector-curvature="0"
                       id="path3058"
                       style="fill:#ffffff;fill-opacity:1;fill-rule:nonzero;stroke:none"
                       d="m 0,0 -18.114,15.56 c -0.542,0.465 -1.239,0.655 -1.908,0.52 -0.67,-0.135 -1.237,-0.58 -1.557,-1.218 L -31.583,-5.133 -48.543,9.435 c -0.543,0.465 -1.239,0.657 -1.908,0.522 -0.67,-0.136 -1.238,-0.58 -1.557,-1.22 L -62.013,-11.259 -78.974,3.31 c -0.542,0.467 -1.237,0.657 -1.907,0.522 -0.67,-0.135 -1.237,-0.58 -1.558,-1.219 l -10.004,-19.995 -16.96,14.568 c -0.543,0.466 -1.238,0.656 -1.908,0.521 v 0 c -0.67,-0.135 -1.237,-0.579 -1.557,-1.219 l -10.685,-21.354 c -0.364,-0.729 -0.07,-1.614 0.659,-1.979 0.306,-0.152 0.639,-0.189 0.95,-0.127 0.43,0.087 0.817,0.364 1.029,0.787 l 10.278,20.544 17.426,-14.968 c 0.42,-0.362 0.984,-0.438 1.47,-0.259 0.517,0.023 1.007,0.31 1.255,0.807 l 10.278,20.543 17.427,-14.967 c 0.358,-0.308 0.822,-0.414 1.253,-0.328 0.079,0.017 0.158,0.042 0.235,0.071 0.51,0.027 0.992,0.314 1.237,0.806 L -49.777,6.606 -32.352,-8.36 c 0.359,-0.309 0.823,-0.414 1.253,-0.328 0.08,0.016 0.159,0.04 0.236,0.069 0.51,0.03 0.991,0.316 1.237,0.806 l 10.278,20.545 17.426,-14.967 c 0.359,-0.309 0.822,-0.415 1.253,-0.328 0.311,0.062 0.604,0.226 0.827,0.483 C 0.688,-1.461 0.617,-0.531 0,0" /></g></g></g></g><g
               id="g3078"><g
                 id="g3068" /><g
                 id="g3076"><g
                   style="opacity:0.30000299"
                   id="g3074"
                   clip-path="url(#clipPath1702)"><g
                     id="g3072"
                     transform="translate(185.8848,275.0244)"><path
                       inkscape:connector-curvature="0"
                       id="path3070"
                       style="fill:#ffffff;fill-opacity:1;fill-rule:nonzero;stroke:none"
                       d="m 0,0 -18.113,15.559 c -0.542,0.465 -1.239,0.656 -1.908,0.52 -0.67,-0.134 -1.237,-0.579 -1.558,-1.218 L -31.583,-5.133 -48.542,9.434 c -0.543,0.465 -1.24,0.658 -1.908,0.523 -0.67,-0.136 -1.238,-0.58 -1.557,-1.221 L -62.012,-11.26 -78.973,3.309 c -0.542,0.466 -1.237,0.657 -1.907,0.522 -0.67,-0.134 -1.238,-0.58 -1.558,-1.219 l -10.004,-19.995 -16.96,14.568 c -0.542,0.466 -1.238,0.657 -1.908,0.523 v -0.001 c -0.67,-0.135 -1.237,-0.58 -1.558,-1.22 l -10.684,-21.353 c -0.364,-0.729 -0.07,-1.614 0.659,-1.98 0.306,-0.151 0.639,-0.189 0.949,-0.126 0.431,0.086 0.818,0.363 1.029,0.786 l 10.279,20.543 17.426,-14.967 c 0.42,-0.362 0.984,-0.437 1.469,-0.259 0.518,0.023 1.008,0.31 1.256,0.807 L -80.206,0.48 -62.78,-14.486 c 0.357,-0.308 0.822,-0.413 1.252,-0.327 0.08,0.017 0.159,0.041 0.236,0.07 0.51,0.028 0.992,0.315 1.237,0.805 l 10.279,20.543 17.424,-14.966 c 0.359,-0.309 0.824,-0.414 1.253,-0.327 0.08,0.016 0.16,0.039 0.237,0.068 0.51,0.03 0.991,0.317 1.236,0.807 L -19.347,12.73 -1.921,-2.236 c 0.358,-0.309 0.822,-0.414 1.253,-0.327 0.31,0.062 0.604,0.225 0.827,0.483 C 0.689,-1.461 0.618,-0.531 0,0" /></g></g></g></g><g
               id="g3090"><g
                 id="g3080" /><g
                 id="g3088"><g
                   style="opacity:0.30000299"
                   id="g3086"
                   clip-path="url(#clipPath1718)"><g
                     id="g3084"
                     transform="translate(189.0039,259.5273)"><path
                       inkscape:connector-curvature="0"
                       id="path3082"
                       style="fill:#ffffff;fill-opacity:1;fill-rule:nonzero;stroke:none"
                       d="m 0,0 -18.113,15.559 c -0.542,0.465 -1.239,0.655 -1.908,0.52 -0.67,-0.135 -1.237,-0.579 -1.558,-1.218 L -31.583,-5.134 -48.542,9.434 c -0.543,0.466 -1.239,0.657 -1.909,0.522 -0.669,-0.137 -1.237,-0.579 -1.557,-1.22 L -62.012,-11.26 -78.973,3.309 c -0.542,0.467 -1.237,0.657 -1.907,0.522 -0.67,-0.135 -1.238,-0.58 -1.558,-1.219 l -10.004,-19.996 -16.96,14.569 c -0.542,0.466 -1.238,0.656 -1.908,0.522 l -0.001,-10e-4 c -0.669,-0.135 -1.236,-0.579 -1.557,-1.219 l -10.684,-21.353 c -0.364,-0.73 -0.07,-1.615 0.658,-1.98 0.307,-0.152 0.639,-0.19 0.951,-0.127 0.429,0.087 0.817,0.363 1.028,0.786 l 10.279,20.543 17.426,-14.967 c 0.42,-0.362 0.983,-0.437 1.469,-0.259 0.518,0.024 1.008,0.311 1.256,0.807 l 10.279,20.544 17.426,-14.967 c 0.358,-0.308 0.822,-0.414 1.252,-0.327 0.08,0.016 0.159,0.04 0.236,0.07 0.51,0.027 0.992,0.314 1.237,0.805 l 10.279,20.543 17.424,-14.967 c 0.359,-0.308 0.823,-0.413 1.253,-0.326 0.081,0.015 0.16,0.039 0.236,0.068 0.51,0.029 0.993,0.316 1.237,0.807 L -19.347,12.73 -1.92,-2.238 c 0.357,-0.307 0.82,-0.413 1.252,-0.325 0.31,0.061 0.604,0.224 0.827,0.482 C 0.689,-1.462 0.618,-0.532 0,0" /></g></g></g></g><g
               id="g3102"><g
                 id="g3092" /><g
                 id="g3100"><g
                   style="opacity:0.30000299"
                   id="g3098"
                   clip-path="url(#clipPath1734)"><g
                     id="g3096"
                     transform="translate(192.123,244.0303)"><path
                       inkscape:connector-curvature="0"
                       id="path3094"
                       style="fill:#ffffff;fill-opacity:1;fill-rule:nonzero;stroke:none"
                       d="m 0,0 -18.114,15.559 c -0.542,0.466 -1.238,0.655 -1.907,0.521 -0.669,-0.136 -1.237,-0.579 -1.558,-1.219 L -31.583,-5.134 -48.543,9.435 c -0.543,0.465 -1.238,0.656 -1.908,0.52 -0.669,-0.136 -1.237,-0.579 -1.557,-1.218 L -62.013,-11.26 -78.973,3.31 c -0.543,0.466 -1.237,0.656 -1.907,0.521 -0.67,-0.135 -1.238,-0.579 -1.558,-1.218 l -10.004,-19.996 -16.96,14.569 c -0.542,0.465 -1.239,0.655 -1.908,0.521 l -0.001,-10e-4 c -0.669,-0.135 -1.237,-0.578 -1.557,-1.218 l -10.684,-21.354 c -0.365,-0.73 -0.07,-1.614 0.659,-1.981 0.305,-0.151 0.638,-0.189 0.95,-0.126 0.429,0.087 0.817,0.363 1.028,0.787 l 10.279,20.543 17.426,-14.967 c 0.42,-0.363 0.983,-0.438 1.469,-0.259 0.518,0.023 1.008,0.311 1.256,0.807 l 10.278,20.544 17.427,-14.967 c 0.358,-0.309 0.822,-0.414 1.252,-0.328 0.08,0.016 0.159,0.04 0.236,0.07 0.51,0.027 0.992,0.315 1.236,0.805 l 10.279,20.543 17.425,-14.966 c 0.359,-0.309 0.823,-0.414 1.253,-0.327 0.08,0.015 0.16,0.039 0.236,0.068 0.51,0.029 0.992,0.317 1.237,0.807 L -19.347,12.73 -1.921,-2.237 c 0.358,-0.309 0.821,-0.414 1.252,-0.326 0.311,0.061 0.604,0.224 0.827,0.482 C 0.689,-1.461 0.617,-0.532 0,0" /></g></g></g></g><g
               id="g3114"><g
                 id="g3104" /><g
                 id="g3112"><g
                   style="opacity:0.30000299"
                   id="g3110"
                   clip-path="url(#clipPath1750)"><g
                     id="g3108"
                     transform="translate(195.2422,228.5322)"><path
                       inkscape:connector-curvature="0"
                       id="path3106"
                       style="fill:#ffffff;fill-opacity:1;fill-rule:nonzero;stroke:none"
                       d="m 0,0 -18.113,15.559 c -0.543,0.465 -1.239,0.656 -1.908,0.521 -0.67,-0.135 -1.237,-0.579 -1.558,-1.219 L -31.583,-5.134 -48.543,9.435 c -0.542,0.465 -1.238,0.656 -1.908,0.521 -0.669,-0.136 -1.237,-0.58 -1.557,-1.219 L -62.013,-11.259 -78.973,3.31 c -0.542,0.466 -1.237,0.657 -1.907,0.522 -0.67,-0.135 -1.238,-0.58 -1.558,-1.219 l -10.004,-19.995 -16.96,14.568 c -0.543,0.465 -1.239,0.657 -1.908,0.522 l -0.001,-0.001 c -0.669,-0.135 -1.236,-0.58 -1.557,-1.219 l -10.684,-21.354 c -0.365,-0.729 -0.07,-1.614 0.659,-1.979 0.305,-0.152 0.638,-0.19 0.95,-0.127 0.429,0.087 0.817,0.362 1.028,0.785 l 10.279,20.544 17.426,-14.967 c 0.42,-0.362 0.983,-0.437 1.469,-0.259 0.518,0.024 1.008,0.311 1.256,0.807 l 10.278,20.544 17.427,-14.968 c 0.358,-0.308 0.822,-0.413 1.252,-0.326 0.079,0.016 0.159,0.04 0.236,0.069 0.51,0.028 0.992,0.316 1.236,0.805 l 10.28,20.544 17.425,-14.967 c 0.358,-0.309 0.822,-0.413 1.252,-0.327 0.08,0.016 0.16,0.04 0.236,0.068 0.51,0.03 0.992,0.317 1.237,0.807 L -19.347,12.73 -1.921,-2.237 c 0.358,-0.309 0.822,-0.413 1.252,-0.326 0.311,0.062 0.604,0.225 0.827,0.483 C 0.689,-1.461 0.617,-0.531 0,0" /></g></g></g></g><g
               id="g3126"><g
                 id="g3116" /><g
                 id="g3124"><g
                   style="opacity:0.30000299"
                   id="g3122"
                   clip-path="url(#clipPath1766)"><g
                     id="g3120"
                     transform="translate(198.3608,213.0352)"><path
                       inkscape:connector-curvature="0"
                       id="path3118"
                       style="fill:#ffffff;fill-opacity:1;fill-rule:nonzero;stroke:none"
                       d="m 0,0 -18.114,15.56 c -0.541,0.464 -1.237,0.655 -1.907,0.521 -0.669,-0.136 -1.237,-0.58 -1.558,-1.219 L -31.583,-5.134 -48.542,9.434 c -0.543,0.466 -1.239,0.657 -1.908,0.522 -0.67,-0.136 -1.238,-0.58 -1.557,-1.218 L -62.013,-11.259 -78.973,3.31 c -0.542,0.466 -1.237,0.657 -1.907,0.521 -0.67,-0.134 -1.238,-0.579 -1.558,-1.218 l -10.004,-19.996 -16.96,14.568 c -0.542,0.466 -1.238,0.658 -1.908,0.522 h -0.001 c -0.669,-0.136 -1.236,-0.58 -1.557,-1.218 l -10.684,-21.355 c -0.364,-0.729 -0.07,-1.614 0.659,-1.98 0.306,-0.15 0.639,-0.189 0.95,-0.126 0.43,0.086 0.817,0.363 1.028,0.786 l 10.279,20.544 17.426,-14.967 c 0.42,-0.363 0.983,-0.438 1.469,-0.26 0.518,0.024 1.008,0.311 1.256,0.808 l 10.279,20.544 17.426,-14.968 c 0.358,-0.309 0.822,-0.413 1.252,-0.327 0.08,0.016 0.159,0.039 0.236,0.069 0.511,0.028 0.991,0.316 1.237,0.806 L -49.776,6.607 -32.351,-8.36 c 0.358,-0.309 0.823,-0.413 1.252,-0.328 0.08,0.016 0.16,0.04 0.237,0.068 0.51,0.03 0.991,0.318 1.236,0.807 l 10.279,20.544 17.426,-14.967 c 0.358,-0.309 0.822,-0.415 1.253,-0.327 0.31,0.062 0.604,0.226 0.827,0.482 C 0.689,-1.461 0.618,-0.531 0,0" /></g></g></g></g><g
               id="g3138"><g
                 id="g3128" /><g
                 id="g3136"><g
                   style="opacity:0.30000299"
                   id="g3134"
                   clip-path="url(#clipPath1782)"><g
                     id="g3132"
                     transform="translate(201.48,197.5381)"><path
                       inkscape:connector-curvature="0"
                       id="path3130"
                       style="fill:#ffffff;fill-opacity:1;fill-rule:nonzero;stroke:none"
                       d="m 0,0 -18.113,15.559 c -0.543,0.466 -1.239,0.656 -1.908,0.522 -0.669,-0.136 -1.237,-0.579 -1.558,-1.22 L -31.583,-5.134 -48.543,9.435 c -0.543,0.465 -1.238,0.656 -1.908,0.521 -0.67,-0.136 -1.237,-0.579 -1.557,-1.219 l -10.005,-19.995 -16.96,14.567 c -0.543,0.467 -1.237,0.658 -1.907,0.523 -0.67,-0.135 -1.238,-0.579 -1.558,-1.22 l -10.004,-19.994 -16.96,14.568 c -0.542,0.466 -1.239,0.656 -1.908,0.521 l -0.001,-10e-4 c -0.669,-0.135 -1.236,-0.578 -1.557,-1.218 l -10.684,-21.354 c -0.364,-0.729 -0.069,-1.614 0.658,-1.979 0.306,-0.152 0.64,-0.19 0.951,-0.128 0.43,0.087 0.817,0.364 1.028,0.787 l 10.279,20.543 17.426,-14.966 c 0.42,-0.363 0.983,-0.438 1.469,-0.26 0.518,0.024 1.008,0.311 1.256,0.808 l 10.279,20.543 17.425,-14.967 c 0.359,-0.31 0.823,-0.413 1.253,-0.328 0.08,0.017 0.159,0.04 0.236,0.069 0.511,0.029 0.991,0.317 1.236,0.807 L -49.777,6.606 -32.351,-8.36 c 0.358,-0.31 0.823,-0.413 1.252,-0.328 0.08,0.016 0.16,0.04 0.237,0.068 0.509,0.03 0.992,0.317 1.236,0.807 L -19.347,12.73 -1.921,-2.236 c 0.359,-0.31 0.822,-0.415 1.252,-0.327 0.311,0.062 0.605,0.225 0.827,0.483 C 0.689,-1.461 0.618,-0.531 0,0" /></g></g></g></g><g
               id="g3150"><g
                 id="g3140" /><g
                 id="g3148"><g
                   style="opacity:0.30000299"
                   id="g3146"
                   clip-path="url(#clipPath1798)"><g
                     id="g3144"
                     transform="translate(204.5991,182.041)"><path
                       inkscape:connector-curvature="0"
                       id="path3142"
                       style="fill:#ffffff;fill-opacity:1;fill-rule:nonzero;stroke:none"
                       d="m 0,0 -18.113,15.558 c -0.542,0.466 -1.239,0.657 -1.908,0.523 -0.669,-0.137 -1.237,-0.58 -1.558,-1.221 L -31.583,-5.134 -48.543,9.434 c -0.543,0.465 -1.238,0.657 -1.908,0.522 -0.67,-0.136 -1.237,-0.58 -1.557,-1.22 l -10.005,-19.995 -16.96,14.567 c -0.542,0.468 -1.237,0.659 -1.907,0.523 -0.67,-0.134 -1.238,-0.579 -1.558,-1.22 l -10.004,-19.994 -16.96,14.568 c -0.542,0.466 -1.239,0.657 -1.909,0.522 v 0 c -0.669,-0.136 -1.236,-0.58 -1.557,-1.22 l -10.684,-21.353 c -0.364,-0.73 -0.069,-1.615 0.658,-1.98 0.306,-0.151 0.64,-0.19 0.951,-0.127 0.43,0.087 0.817,0.364 1.029,0.786 l 10.278,20.543 17.426,-14.966 c 0.42,-0.363 0.983,-0.438 1.47,-0.259 0.517,0.023 1.007,0.31 1.255,0.807 l 10.278,20.543 17.427,-14.967 c 0.358,-0.309 0.822,-0.413 1.252,-0.327 0.08,0.016 0.159,0.04 0.236,0.069 0.51,0.029 0.991,0.317 1.237,0.806 l 10.279,20.544 17.425,-14.967 c 0.358,-0.309 0.823,-0.413 1.252,-0.327 0.08,0.016 0.16,0.039 0.237,0.068 0.509,0.03 0.992,0.317 1.236,0.807 l 10.279,20.542 17.426,-14.966 c 0.358,-0.309 0.822,-0.414 1.252,-0.327 0.312,0.062 0.605,0.226 0.827,0.484 C 0.689,-1.462 0.618,-0.531 0,0" /></g></g></g></g><g
               id="g3162"><g
                 id="g3152" /><g
                 id="g3160"><g
                   style="opacity:0.30000299"
                   id="g3158"
                   clip-path="url(#clipPath1814)"><g
                     id="g3156"
                     transform="translate(207.7183,166.5449)"><path
                       inkscape:connector-curvature="0"
                       id="path3154"
                       style="fill:#ffffff;fill-opacity:1;fill-rule:nonzero;stroke:none"
                       d="m 0,0 -18.113,15.558 c -0.543,0.466 -1.239,0.655 -1.908,0.52 -0.67,-0.136 -1.237,-0.578 -1.558,-1.218 L -31.583,-5.135 -48.543,9.434 c -0.543,0.465 -1.238,0.655 -1.908,0.52 -0.669,-0.136 -1.237,-0.578 -1.557,-1.218 L -62.013,-11.26 -78.973,3.308 c -0.542,0.467 -1.237,0.657 -1.907,0.522 -0.67,-0.135 -1.238,-0.578 -1.558,-1.219 l -10.004,-19.995 -16.96,14.569 c -0.543,0.465 -1.239,0.655 -1.908,0.52 h -0.001 c -0.669,-0.136 -1.236,-0.578 -1.557,-1.218 l -10.684,-21.353 c -0.364,-0.731 -0.07,-1.616 0.658,-1.981 0.306,-0.151 0.64,-0.189 0.95,-0.127 0.431,0.088 0.817,0.365 1.029,0.786 l 10.278,20.544 17.427,-14.967 c 0.42,-0.363 0.984,-0.438 1.47,-0.259 0.517,0.023 1.007,0.311 1.255,0.807 l 10.278,20.544 17.426,-14.968 c 0.359,-0.308 0.823,-0.413 1.253,-0.326 0.079,0.015 0.158,0.04 0.236,0.069 0.51,0.028 0.991,0.316 1.237,0.806 l 10.278,20.543 17.425,-14.967 c 0.359,-0.308 0.823,-0.412 1.253,-0.326 0.08,0.016 0.16,0.039 0.236,0.068 0.51,0.029 0.992,0.316 1.237,0.806 l 10.278,20.543 17.427,-14.967 c 0.358,-0.308 0.822,-0.413 1.252,-0.326 0.312,0.061 0.605,0.225 0.827,0.483 C 0.689,-1.463 0.618,-0.532 0,0" /></g></g></g></g><g
               id="g3174"><g
                 id="g3164" /><g
                 id="g3172"><g
                   style="opacity:0.30000299"
                   id="g3170"
                   clip-path="url(#clipPath1830)"><g
                     id="g3168"
                     transform="translate(210.8369,151.0459)"><path
                       inkscape:connector-curvature="0"
                       id="path3166"
                       style="fill:#ffffff;fill-opacity:1;fill-rule:nonzero;stroke:none"
                       d="m 0,0 -18.113,15.56 c -0.543,0.466 -1.238,0.655 -1.908,0.52 -0.669,-0.136 -1.237,-0.578 -1.557,-1.218 L -31.583,-5.133 -48.543,9.436 c -0.543,0.465 -1.238,0.655 -1.907,0.52 -0.671,-0.136 -1.238,-0.578 -1.557,-1.218 L -62.013,-11.258 -78.972,3.31 c -0.543,0.467 -1.238,0.657 -1.908,0.523 -0.67,-0.137 -1.238,-0.579 -1.558,-1.22 l -10.004,-19.995 -16.96,14.569 c -0.543,0.465 -1.238,0.655 -1.908,0.52 -0.669,-0.136 -1.237,-0.578 -1.558,-1.218 l -10.683,-21.355 c -0.365,-0.73 -0.07,-1.614 0.658,-1.979 0.306,-0.152 0.639,-0.189 0.95,-0.127 0.43,0.087 0.817,0.364 1.028,0.786 l 10.279,20.543 17.426,-14.966 c 0.42,-0.362 0.984,-0.439 1.47,-0.259 0.517,0.022 1.007,0.311 1.255,0.806 l 10.279,20.544 17.426,-14.967 c 0.358,-0.309 0.822,-0.414 1.252,-0.327 0.08,0.016 0.159,0.04 0.236,0.069 0.511,0.028 0.992,0.316 1.237,0.806 l 10.279,20.544 17.425,-14.968 c 0.358,-0.308 0.823,-0.412 1.252,-0.327 0.081,0.017 0.16,0.04 0.237,0.07 0.51,0.028 0.992,0.315 1.236,0.805 l 10.279,20.544 17.426,-14.967 c 0.358,-0.309 0.822,-0.414 1.252,-0.327 0.312,0.061 0.605,0.225 0.828,0.484 C 0.689,-1.462 0.618,-0.53 0,0" /></g></g></g></g><g
               id="g3186"><g
                 id="g3176" /><g
                 id="g3184"><g
                   style="opacity:0.30000299"
                   id="g3182"
                   clip-path="url(#clipPath1846)"><g
                     id="g3180"
                     transform="translate(213.9565,135.5488)"><path
                       inkscape:connector-curvature="0"
                       id="path3178"
                       style="fill:#ffffff;fill-opacity:1;fill-rule:nonzero;stroke:none"
                       d="m 0,0 -18.114,15.56 c -0.542,0.465 -1.238,0.655 -1.907,0.521 -0.67,-0.136 -1.238,-0.58 -1.558,-1.219 L -31.583,-5.133 -48.544,9.435 c -0.542,0.465 -1.237,0.657 -1.907,0.522 -0.67,-0.136 -1.237,-0.58 -1.558,-1.219 L -62.013,-11.258 -78.973,3.31 c -0.542,0.467 -1.238,0.658 -1.908,0.523 -0.67,-0.136 -1.237,-0.58 -1.557,-1.22 l -10.005,-19.994 -16.96,14.568 c -0.542,0.464 -1.238,0.656 -1.908,0.521 v 0 c -0.669,-0.136 -1.237,-0.58 -1.557,-1.219 l -10.684,-21.355 c -0.365,-0.729 -0.07,-1.614 0.658,-1.979 0.306,-0.151 0.639,-0.189 0.95,-0.127 0.431,0.087 0.818,0.364 1.029,0.786 l 10.278,20.544 17.427,-14.967 c 0.419,-0.362 0.983,-0.438 1.469,-0.259 0.517,0.023 1.008,0.31 1.256,0.806 l 10.279,20.545 17.425,-14.968 c 0.358,-0.309 0.823,-0.414 1.253,-0.327 0.079,0.016 0.158,0.04 0.236,0.069 0.51,0.028 0.991,0.316 1.237,0.806 l 10.278,20.544 17.425,-14.968 c 0.359,-0.309 0.823,-0.412 1.253,-0.327 0.08,0.017 0.159,0.041 0.236,0.069 0.51,0.03 0.992,0.317 1.236,0.806 l 10.279,20.545 17.427,-14.968 c 0.358,-0.309 0.821,-0.414 1.252,-0.327 0.312,0.061 0.605,0.226 0.827,0.484 C 0.688,-1.461 0.617,-0.529 0,0" /></g></g></g></g><g
               id="g3198"><g
                 id="g3188" /><g
                 id="g3196"><g
                   style="opacity:0.30000299"
                   id="g3194"
                   clip-path="url(#clipPath1862)"><g
                     id="g3192"
                     transform="translate(217.0757,120.0518)"><path
                       inkscape:connector-curvature="0"
                       id="path3190"
                       style="fill:#ffffff;fill-opacity:1;fill-rule:nonzero;stroke:none"
                       d="m 0,0 -18.114,15.559 c -0.542,0.465 -1.238,0.655 -1.907,0.521 -0.67,-0.136 -1.238,-0.579 -1.558,-1.219 L -31.583,-5.133 -48.543,9.434 c -0.543,0.466 -1.238,0.657 -1.908,0.522 -0.67,-0.135 -1.237,-0.579 -1.557,-1.219 l -10.005,-19.996 -16.96,14.568 c -0.542,0.468 -1.238,0.657 -1.908,0.523 -0.67,-0.136 -1.237,-0.579 -1.557,-1.22 l -10.005,-19.994 -16.96,14.568 c -0.542,0.465 -1.238,0.656 -1.908,0.521 v 0 c -0.669,-0.136 -1.237,-0.579 -1.557,-1.219 l -10.684,-21.354 c -0.365,-0.73 -0.07,-1.614 0.658,-1.979 0.306,-0.152 0.639,-0.189 0.95,-0.127 0.431,0.087 0.817,0.364 1.029,0.786 l 10.278,20.544 17.426,-14.968 c 0.42,-0.361 0.984,-0.437 1.47,-0.258 0.517,0.023 1.008,0.31 1.255,0.806 l 10.279,20.545 17.426,-14.968 c 0.358,-0.309 0.822,-0.414 1.253,-0.327 0.079,0.016 0.158,0.04 0.235,0.069 0.511,0.027 0.992,0.315 1.238,0.806 l 10.278,20.543 17.425,-14.967 c 0.359,-0.309 0.823,-0.412 1.253,-0.327 0.08,0.016 0.159,0.04 0.236,0.069 0.51,0.029 0.992,0.316 1.236,0.806 l 10.279,20.545 17.426,-14.968 c 0.359,-0.309 0.823,-0.414 1.252,-0.327 0.313,0.061 0.605,0.226 0.828,0.483 C 0.689,-1.462 0.617,-0.53 0,0" /></g></g></g></g></g></g><g
           transform="translate(193.29,116.7178)"
           id="g3206"><path
             inkscape:connector-curvature="0"
             id="path3204"
             style="fill:#424242;fill-opacity:1;fill-rule:nonzero;stroke:none"
             d="m 0,0 -8.416,-1.693 -40.493,201.197 8.415,1.693 z" /></g></g><g
         id="g3222"
         transform="matrix(0.5192081,0,0,0.5192081,-27.467151,-21.748469)"><g
           transform="translate(283.3936,204.9365)"
           id="g3212"><path
             inkscape:connector-curvature="0"
             id="path3210"
             style="fill:#424242;fill-opacity:1;fill-rule:nonzero;stroke:none"
             d="m 0,0 c 0.439,1.818 -0.682,3.65 -2.502,4.09 l -6.94,1.673 c -1.821,0.439 -3.653,-0.682 -4.091,-2.5 l -33.37,-138.411 13.533,-3.262 z" /></g><g
           transform="translate(236.4902,69.7881)"
           id="g3216"><path
             inkscape:connector-curvature="0"
             id="path3214"
             style="fill:#ff6e7a;fill-opacity:1;fill-rule:nonzero;stroke:none"
             d="m 0,0 -1.13,-4.688 c -0.439,-1.819 0.681,-3.653 2.502,-4.091 l 6.94,-1.673 c 1.82,-0.44 3.653,0.681 4.091,2.502 l 1.13,4.688 z" /></g><g
           transform="translate(281.4316,187.7363)"
           id="g3220"><path
             inkscape:connector-curvature="0"
             id="path3218"
             style="fill:#ff6e7a;fill-opacity:1;fill-rule:nonzero;stroke:none"
             d="m 0,0 c -0.439,-1.821 -2.271,-2.942 -4.091,-2.502 l -11.07,2.668 c -1.82,0.439 -2.94,2.272 -2.501,4.093 l 12.641,52.433 c 0.439,1.821 2.271,2.942 4.092,2.503 l 11.07,-2.669 c 1.819,-0.438 2.94,-2.271 2.501,-4.09 z" /></g></g></g></g></svg>